<svg width="1022" height="631" viewBox="0 0 1022 631" xmlns="http://www.w3.org/2000/svg"><title>logo</title><g fill="none" fill-rule="evenodd"><path d="M930.147 545.185c-3.417 1.593-7.17 2.883-11.26 3.87-4.64 1.117-9.78 1.676-15.426 1.676l-.502-1.76c5.03-2.235 9.375-4.764 13.036-7.587 3.66-2.822 6.68-5.854 9.054-9.096 2.375-3.24 4.122-6.636 5.24-10.185a36.509 36.509 0 0 0 1.676-11.024c0-4.75-.643-8.76-1.928-12.03-1.286-3.27-3.046-5.938-5.282-8.006-2.235-2.068-4.834-3.563-7.796-4.485-2.962-.922-6.148-1.383-9.557-1.383-4.582 0-8.494.838-11.735 2.515a26.105 26.105 0 0 0-8.342 6.79c-2.32 2.85-4.22 6.203-5.7 10.06-1.48 3.855-2.71 7.935-3.69 12.238a161.15 161.15 0 0 0-2.27 12.212l-.537-2.487c-2.795 3.8-5.56 7.21-8.3 10.228a58.069 58.069 0 0 1-3.73 3.73 44.377 44.377 0 0 1-3.94 3.23c-1.314.95-2.613 1.717-3.9 2.304-1.284.587-2.513.88-3.687.88-1.566 0-2.586-.74-3.06-2.22-.476-1.482-.714-3.536-.714-6.163 0-3.073.28-6.328.84-9.765a328.33 328.33 0 0 1 1.843-10.312c.67-3.437 1.284-6.79 1.843-10.06.56-3.27.84-6.245.84-8.928 0-1.732-.155-3.102-.462-4.108-.307-1.006-.74-1.788-1.3-2.347a3.928 3.928 0 0 0-1.927-1.09c-.726-.167-1.51-.25-2.347-.25-.615 0-1.244.013-1.886.04-.643.03-1.272.043-1.887.043-.726 0-1.44-.042-2.137-.126a7.71 7.71 0 0 1-2.054-.545 3.92 3.92 0 0 1-1.677-1.34 275.22 275.22 0 0 0-1.383-1.888 7.579 7.579 0 0 0-1.803-1.718c-.727-.503-1.733-.755-3.02-.755-3.855 0-7.64.826-11.358 2.474-3.716 1.65-7.25 3.87-10.605 6.665-3.353 2.793-6.44 6.063-9.263 9.807a73.615 73.615 0 0 0-7.335 11.947 70.458 70.458 0 0 0-4.864 12.952c-.2.754-.384 1.506-.55 2.254a94.652 94.652 0 0 1-2.468 3.11 87.283 87.283 0 0 1-4.024 4.57 42.314 42.314 0 0 1-4.233 3.94c-1.424 1.146-2.85 2.068-4.275 2.766-1.425.7-2.78 1.048-4.065 1.048-2.292 0-4.038-.74-5.24-2.22-1.202-1.482-1.802-3.872-1.802-7.17 0-2.626.32-5.74.964-9.346.642-3.605 1.44-7.53 2.39-11.78.95-4.246 1.97-8.745 3.06-13.496 1.09-4.75 2.11-9.6 3.06-14.545a239.97 239.97 0 0 0 2.388-15.006c.643-5.057.964-9.99.964-14.795 0-5.142-.475-10.018-1.425-14.63-.95-4.61-2.32-8.633-4.11-12.07-1.787-3.438-4.01-6.162-6.664-8.174-2.654-2.01-5.686-3.017-9.095-3.017-4.918 0-9.668 1.23-14.25 3.688-4.584 2.46-8.86 5.995-12.827 10.606-3.968 4.61-7.545 10.214-10.73 16.81-3.186 6.593-5.87 14.026-8.05 22.298l-1.76.084c.504-3.912.98-7.545 1.426-10.898.167-1.398.348-2.81.544-4.234.195-1.425.363-2.752.503-3.982.14-1.23.25-2.32.335-3.27.084-.95.126-1.648.126-2.095 0-4.92-.433-9.167-1.3-12.744-.866-3.577-2.08-6.54-3.646-8.886-1.565-2.347-3.437-4.08-5.617-5.198-2.18-1.117-4.555-1.676-7.126-1.676-3.466 0-6.96.95-10.48 2.85-3.52 1.9-7 4.583-10.437 8.048-3.437 3.465-6.776 7.615-10.018 12.45-3.24 4.833-6.3 10.227-9.18 16.18-2.878 5.95-5.532 12.35-7.964 19.196-2.43 6.847-4.54 13.986-6.328 21.42a905.619 905.619 0 0 0 2.6-12.995 504.882 504.882 0 0 0 2.472-13.874c.754-4.61 1.383-9.01 1.886-13.202.503-4.192.755-7.853.755-10.982 0-4.08-.266-7.797-.797-11.15-.53-3.353-1.467-6.218-2.808-8.593-1.34-2.375-3.158-4.22-5.45-5.533-2.29-1.313-5.17-1.97-8.634-1.97-2.683 0-5.49.56-8.425 1.677-2.933 1.117-5.81 3.004-8.634 5.658-2.822 2.655-5.505 6.204-8.048 10.647-2.543 4.443-4.82 9.962-6.832 16.557a1.132 1.132 0 0 0-.335.837c0 .615.084 1.3.252 2.054.168.756.377 1.468.63 2.14.25.67.53 1.242.837 1.717.307.476.6.713.88.713.894 0 1.704-.182 2.43-.545.727-.363 1.258-.964 1.593-1.802a58.89 58.89 0 0 1 5.87-6.75c2.122-2.095 4.246-3.925 6.37-5.49 2.124-1.565 4.15-2.808 6.078-3.73 1.93-.922 3.564-1.384 4.905-1.384.838 0 1.467.25 1.886.754.42.503.714 1.104.88 1.802.17.7.253 1.44.253 2.222v1.928l-1.258 16.347a653.403 653.403 0 0 1-1.3 14.797c-.474 4.778-1.02 9.53-1.634 14.25-.614 4.724-1.34 9.6-2.178 14.63a403.206 403.206 0 0 1-3.018 15.97 650.317 650.317 0 0 1-4.108 18.234 53.986 53.986 0 0 0-1.006 5.826c-.224 1.928-.335 4.038-.335 6.33 0 1.173.307 2.22.922 3.143.614.922 1.453 1.705 2.515 2.347 1.062.643 2.277 1.118 3.646 1.425 1.37.308 2.78.462 4.234.462 1.23 0 2.515-.126 3.856-.378 1.342-.252 2.6-.685 3.773-1.3a9.344 9.344 0 0 0 3.02-2.515c.837-1.062 1.368-2.43 1.59-4.108.728-5.365 1.818-11.108 3.27-17.227 1.454-6.12 3.13-12.38 5.03-18.78a393.916 393.916 0 0 1 6.246-19.196c2.264-6.4 4.61-12.533 7.042-18.402 2.43-5.868 4.876-11.33 7.336-16.39 2.46-5.057 4.848-9.458 7.167-13.202 2.32-3.745 4.486-6.68 6.498-8.803 2.012-2.124 3.8-3.186 5.366-3.186 1.9 0 3.423.504 4.568 1.51 1.146 1.006 2.026 2.46 2.64 4.36.616 1.9 1.007 4.22 1.175 6.958.167 2.738.25 5.84.25 9.305 0 5.03-.334 10.535-1.005 16.515-.67 5.98-1.523 12.03-2.557 18.15a540.935 540.935 0 0 1-3.353 18.024 3486.503 3486.503 0 0 1-3.353 16.263 682.503 682.503 0 0 0-2.558 12.743c-.67 3.55-1.006 6.05-1.006 7.503 0 2.18.265 4.025.796 5.534.53 1.51 1.23 2.752 2.096 3.73.866.978 1.872 1.69 3.018 2.138a9.502 9.502 0 0 0 3.48.67c1.34 0 2.682-.153 4.023-.46a14.42 14.42 0 0 0 3.813-1.467 11.46 11.46 0 0 0 3.186-2.64c.92-1.09 1.606-2.418 2.053-3.983 1.006-5.59 2.096-11.513 3.27-17.773a941.093 941.093 0 0 1 3.772-19.03 537.832 537.832 0 0 1 4.36-19.156 303.355 303.355 0 0 1 5.07-18.192c1.817-5.784 3.746-11.164 5.785-16.138 2.04-4.974 4.234-9.277 6.58-12.91 2.35-3.633 4.836-6.483 7.462-8.55 2.627-2.07 5.422-3.103 8.384-3.103 1.565 0 2.822.393 3.772 1.175.95.783 1.677 1.886 2.18 3.312.503 1.425.838 3.157 1.006 5.197.167 2.04.25 4.317.25 6.832 0 4.136-.278 8.454-.837 12.953a247.227 247.227 0 0 1-2.096 13.663c-.837 4.61-1.76 9.236-2.765 13.874-1.006 4.64-1.97 9.194-2.893 13.665a405.198 405.198 0 0 0-2.473 13.036c-.727 4.22-1.202 8.202-1.426 11.946a27.352 27.352 0 0 0-.166 2.934c0 4.024.67 7.587 2.01 10.69 1.342 3.1 3.13 5.7 5.366 7.795a22.476 22.476 0 0 0 7.67 4.737 25.371 25.371 0 0 0 8.845 1.593c3.128 0 6.272-.475 9.43-1.425 3.158-.95 6.273-2.5 9.347-4.653 2.157-1.51 4.286-3.33 6.388-5.458 1.03 2.045 2.282 3.837 3.756 5.374 1.957 2.04 4.206 3.606 6.75 4.696 2.542 1.09 5.155 1.634 7.838 1.634 2.515 0 5.03-.42 7.545-1.257a40.864 40.864 0 0 0 7.25-3.228 44.009 44.009 0 0 0 6.414-4.4c1.956-1.622 3.605-3.214 4.946-4.78 1.79 4.528 3.913 7.98 6.372 10.354 2.46 2.374 5.533 3.562 9.22 3.562 3.075 0 6.15-.755 9.223-2.264 1.77-.87 3.477-1.85 5.118-2.942a288.58 288.58 0 0 0-2.603 4.787c-1.62 3.074-3.2 6.245-4.737 9.515a154.735 154.735 0 0 0-4.15 9.64c-1.23 3.158-2.207 6.176-2.934 9.054-.726 2.88-1.09 5.463-1.09 7.755 0 3.968.266 7.726.797 11.275.53 3.55 1.424 6.65 2.682 9.306 1.257 2.654 2.948 4.764 5.07 6.33 2.125 1.564 4.78 2.346 7.966 2.346 3.968 0 7.796-1.593 11.485-4.778 3.688-3.186 6.958-7.713 9.808-13.58 2.85-5.87 5.13-12.953 6.833-21.253 1.705-8.3 2.557-17.534 2.557-27.706v-1.51c4.64.672 8.314 1.244 11.024 1.72 2.71.475 4.793.852 6.246 1.13l3.06.588c.586.112 1.075.168 1.467.168 3.24 0 6.525-.46 9.85-1.384a50.854 50.854 0 0 0 9.515-3.69 49.061 49.061 0 0 0 6.787-4.17 15.913 15.913 0 0 0 5.83 6.183c2.15 1.313 4.65 2.277 7.502 2.892 2.85.615 5.924.922 9.22.922 4.584 0 9.432-.517 14.546-1.55a109.652 109.652 0 0 0 15.174-4.234c5.002-1.79 9.78-3.857 14.335-6.204 4.555-2.348 8.565-4.863 12.03-7.546l-.084-18.778c-2.682 2.012-5.35 3.73-8.006 5.155a154.34 154.34 0 0 1-7.754 3.9 2845.992 2845.992 0 0 0-7.252 3.395 50.12 50.12 0 0 0-6.496 3.647c0-3.577-.126-6.68-.377-9.306-.252-2.627-.587-4.946-1.006-6.958-.418-2.012-.85-3.786-1.298-5.323-.448-1.537-.88-2.99-1.3-4.36a35.207 35.207 0 0 1-1.006-4.19c-.25-1.426-.377-3.005-.377-4.738.167-.614.823-1.55 1.97-2.808 1.145-1.26 2.36-2.642 3.646-4.15a46.7 46.7 0 0 0 3.52-4.695c1.063-1.62 1.593-3.102 1.593-4.443 0-.67-.056-1.468-.168-2.39-.112-.922-.503-1.802-1.174-2.64-.67-.84-1.732-1.55-3.185-2.138-1.454-.587-3.52-.88-6.204-.88-1.622 0-3.09.237-4.402.712a15.624 15.624 0 0 0-3.605 1.845 18.669 18.669 0 0 0-2.976 2.557c-.894.95-1.705 1.93-2.43 2.935-3.578 4.47-6.484 8.2-8.72 11.19a1724.81 1724.81 0 0 1-5.7 7.588c-1.565 2.068-2.92 3.856-4.066 5.365a54.645 54.645 0 0 1-3.814 4.485c-1.397 1.48-3.073 3.116-5.03 4.904-1.956 1.79-4.5 4.024-7.628 6.707-.447.392-1.118.923-2.012 1.594-.895.67-1.79 1.453-2.683 2.347a15.087 15.087 0 0 0-2.347 3.06 7.269 7.269 0 0 0-1.006 3.732c0 .35.01.68.027.993zM492.59 528.94c-1.86 1.696-4.01 3.468-6.446 5.317a91.499 91.499 0 0 1-9.976 6.58 68.949 68.949 0 0 1-10.857 5.03c-3.715 1.343-7.25 2.013-10.603 2.013-1.062 0-2.054-.112-2.976-.335a8.24 8.24 0 0 1-2.64-1.174c-.84-.558-1.663-1.34-2.473-2.346-.81-1.006-1.635-2.264-2.473-3.773 4.862-1.34 9.375-3.212 13.54-5.615 4.162-2.403 7.753-5.142 10.77-8.216 3.02-3.075 5.38-6.344 7.085-9.81 1.704-3.464 2.556-6.93 2.556-10.394 0-3.186-.56-6.064-1.677-8.635-1.12-2.57-2.67-4.764-4.654-6.58-1.984-1.816-4.317-3.228-7-4.234-2.682-1.006-5.588-1.51-8.718-1.51-3.856 0-7.363.686-10.52 2.055a30.753 30.753 0 0 0-8.552 5.534c-2.543 2.32-4.764 5.002-6.665 8.048a53.707 53.707 0 0 0-4.735 9.6 57.669 57.669 0 0 0-2.81 10.268c-.613 3.494-.92 6.805-.92 9.935 0 1.165.04 2.317.124 3.455a146.095 146.095 0 0 1-4.4 3.335c-1.342.95-2.726 1.886-4.15 2.808a51.554 51.554 0 0 1-4.234 2.473c-1.398.727-2.725 1.3-3.982 1.72-1.258.418-2.418.628-3.48.628-1.117 0-2.053-.336-2.808-1.006-.754-.67-1.355-1.58-1.802-2.725-.447-1.145-.77-2.445-.964-3.898a34.507 34.507 0 0 1-.294-4.61c0-1.286.084-2.614.252-3.983.167-1.37.377-2.71.63-4.024.25-1.313.515-2.53.795-3.646.28-1.118.56-2.068.838-2.85a465.19 465.19 0 0 1 8.97-20.372 340.504 340.504 0 0 0 8.552-19.784 207.331 207.331 0 0 0 6.874-20.497c1.957-7.015 3.298-14.462 4.024-22.343.168-2.068.252-4.08.252-6.036 0-3.184-.252-6.272-.755-9.262s-1.327-5.617-2.473-7.88c-1.145-2.264-2.64-4.08-4.485-5.45-1.845-1.37-4.08-2.053-6.707-2.053-3.577 0-7.042 1.103-10.395 3.31-3.354 2.21-6.51 5.268-9.474 9.18-2.962 3.913-5.686 8.55-8.173 13.917-2.486 5.365-4.652 11.205-6.496 17.52-1.844 6.316-3.326 12.967-4.443 19.953a157.457 157.457 0 0 0-1.927 21.21c-4.248.39-8.244 1.37-11.988 2.934a48.631 48.631 0 0 0-10.396 5.91 49.102 49.102 0 0 0-8.552 8.13 53.706 53.706 0 0 0-6.413 9.725 50.195 50.195 0 0 0-4.024 10.647c-.92 3.66-1.382 7.28-1.382 10.856 0 1.213.05 2.413.154 3.6a43.989 43.989 0 0 1-3.55 2.562c-1.257.81-2.43 1.467-3.52 1.97-1.09.503-2.054.754-2.892.754-1.845 0-3.2-1.118-4.066-3.353-.866-2.235-1.3-5.085-1.3-8.55 0-2.068.126-4.33.378-6.79.25-2.46.573-4.946.964-7.46.39-2.516.824-4.975 1.3-7.38.474-2.402.907-4.61 1.3-6.62.39-2.013.71-3.746.963-5.2.25-1.452.376-2.486.376-3.1 0-4.137-.824-7.378-2.473-9.725-1.65-2.348-3.87-3.52-6.665-3.52-2.794 0-5.337.558-7.63 1.675-2.29 1.118-4.33 3.186-6.118 6.204-.392.67-.978 1.704-1.76 3.102a191.76 191.76 0 0 0-2.6 4.82 314.32 314.32 0 0 1-3.06 5.7c-1.09 1.985-2.11 3.87-3.06 5.66l-2.514 4.736c-.727 1.37-1.258 2.36-1.593 2.976h-1.677c0-.39.084-1.16.252-2.305.167-1.146.377-2.488.628-4.024.252-1.538.517-3.215.797-5.03.28-1.818.545-3.578.796-5.283.25-1.704.46-3.27.628-4.694.168-1.426.25-2.557.25-3.396 0-3.074-.585-5.533-1.76-7.377-1.173-1.844-3.268-2.766-6.286-2.766s-5.408.866-7.168 2.598c-1.76 1.733-2.948 3.885-3.563 6.456-.78 3.297-1.592 7.265-2.43 11.904a323.071 323.071 0 0 0-2.264 14.46 365.675 365.675 0 0 0-1.438 12.28 112.708 112.708 0 0 1-3.34 3.86 59.65 59.65 0 0 1-3.73 3.73 44.86 44.86 0 0 1-3.94 3.227c-1.314.95-2.613 1.717-3.9 2.304-1.284.587-2.514.88-3.688.88-1.564 0-2.584-.74-3.06-2.22-.474-1.482-.712-3.536-.712-6.163 0-3.073.28-6.328.838-9.765.56-3.438 1.174-6.875 1.845-10.312.67-3.437 1.286-6.79 1.845-10.06.56-3.27.838-6.245.838-8.928 0-1.732-.153-3.102-.46-4.108-.308-1.006-.74-1.788-1.3-2.347a3.944 3.944 0 0 0-1.928-1.09c-.727-.167-1.51-.25-2.348-.25-.614 0-1.243.013-1.886.04-.642.03-1.27.043-1.885.043-.727 0-1.44-.042-2.138-.126a7.74 7.74 0 0 1-2.054-.545 3.912 3.912 0 0 1-1.676-1.34 314.19 314.19 0 0 0-1.384-1.888 7.574 7.574 0 0 0-1.802-1.718c-.726-.503-1.732-.755-3.017-.755-3.856 0-7.643.826-11.36 2.474-3.716 1.65-7.25 3.87-10.604 6.665-3.354 2.793-6.442 6.063-9.264 9.807a73.62 73.62 0 0 0-7.336 11.947 70.595 70.595 0 0 0-4.862 12.952 53.195 53.195 0 0 0-1.427 7.37c-.096.045-.193.09-.29.133-1.705.753-3.368 1.13-4.99 1.13-1.62 0-3.142-.223-4.568-.67a9.121 9.121 0 0 1-3.688-2.18c-1.034-1.006-1.858-2.277-2.473-3.814-.614-1.537-.92-3.396-.92-5.575 0-.893.348-2.99 1.047-6.287.698-3.297 1.564-7.35 2.598-12.155 1.034-4.807 2.152-10.2 3.354-16.18a524.66 524.66 0 0 0 3.352-18.443 371.152 371.152 0 0 0 2.6-18.904c.697-6.287 1.047-12.14 1.047-17.562 0-1.956-.225-3.563-.672-4.82-.447-1.258-1.09-2.264-1.928-3.018a7.141 7.141 0 0 0-2.976-1.593c-1.146-.308-2.417-.46-3.815-.46-1.79 0-3.536.152-5.24.46-1.705.307-3.228.936-4.57 1.886-1.34.95-2.444 2.29-3.31 4.024-.867 1.732-1.384 4.024-1.55 6.874-.17 2.74-.462 6.526-.88 11.36-.42 4.835-.994 10.284-1.72 16.348a499.02 499.02 0 0 1-2.725 19.323 351.117 351.117 0 0 1-3.856 20.29c-1.482 6.705-3.187 13.132-5.115 19.28-1.928 6.148-4.107 11.555-6.54 16.222-2.43 4.666-5.112 8.397-8.046 11.19-2.936 2.796-6.19 4.193-9.768 4.193-2.068 0-3.8-.755-5.198-2.264-1.397-1.508-2.53-3.687-3.395-6.538-.867-2.85-1.482-6.3-1.845-10.353s-.544-8.6-.544-13.63c0-4.918.224-10.31.67-16.18a449.793 449.793 0 0 1 1.72-17.814 690.753 690.753 0 0 1 2.263-17.563c.81-5.7 1.565-10.8 2.263-15.3l1.72-11.066c.446-2.878.67-4.513.67-4.904 0-1.174-.168-2.236-.504-3.186-.335-.95-.908-1.76-1.718-2.43-.81-.67-1.9-1.202-3.27-1.594-1.37-.39-3.115-.586-5.24-.586-2.235 0-4.205.25-5.91.754-1.704.503-3.2 1.37-4.484 2.6-1.286 1.228-2.39 2.877-3.312 4.945-.922 2.068-1.718 4.64-2.39 7.713-3.632 19.058-7.795 36.075-12.49 51.053a316.294 316.294 0 0 1-4.275 12.616 168.176 168.176 0 0 1-4.82 11.904c-1.705 3.773-3.48 7.28-5.324 10.52-1.845 3.243-3.774 6.037-5.786 8.385-2.012 2.347-4.093 4.19-6.245 5.533-2.153 1.34-4.374 2.012-6.666 2.012-2.29 0-4.275-.727-5.952-2.18-1.676-1.453-3.074-3.45-4.19-5.994-1.12-2.543-1.944-5.533-2.475-8.97-.53-3.437-.796-7.14-.796-11.108 0-4.862.462-10.13 1.384-15.802a242.87 242.87 0 0 1 3.48-17.312 415.674 415.674 0 0 1 4.526-17.353c1.62-5.7 3.13-10.98 4.527-15.843 1.397-4.863 2.557-9.152 3.48-12.87.92-3.715 1.383-6.524 1.383-8.424 0-1.676-.182-3.004-.545-3.982-.364-.977-.895-1.73-1.593-2.262-.7-.53-1.55-.88-2.557-1.048a20.445 20.445 0 0 0-3.353-.252c-1.51 0-3.004.084-4.485.252-1.48.167-2.95.684-4.402 1.55-1.453.867-2.878 2.208-4.275 4.025-1.397 1.816-2.794 4.345-4.192 7.586a205.999 205.999 0 0 0-6.287 17.942 206.28 206.28 0 0 0-4.652 18.61 208.88 208.88 0 0 0-2.892 18.737C.336 503.77 0 509.847 0 515.77c0 9.67.768 18.122 2.305 25.36 1.537 7.237 3.577 13.26 6.12 18.066 2.543 4.806 5.49 8.425 8.844 10.856 3.353 2.43 6.874 3.647 10.562 3.647 6.428 0 12.282-1.103 17.563-3.31 5.282-2.208 9.976-5.91 14.084-11.11 4.107-5.196 7.684-12.084 10.73-20.663 3.046-8.58 5.574-19.24 7.586-31.982-.167 1.844-.39 3.94-.67 6.287s-.42 4.862-.42 7.545c0 7.32.532 14.224 1.593 20.707 1.06 6.483 2.752 12.127 5.07 16.934 2.32 4.806 5.34 8.607 9.055 11.4 3.717 2.795 8.23 4.193 13.54 4.193 4.19 0 8.257-.796 12.197-2.39 3.94-1.59 7.712-3.855 11.317-6.79 3.604-2.933 7.013-6.482 10.227-10.646 3.213-4.163 6.217-8.844 9.012-14.042.334 2.683.92 5.002 1.76 6.958.837 1.957 1.885 3.55 3.143 4.78a11.917 11.917 0 0 0 4.317 2.723c1.62.587 3.353.88 5.198.88 3.856 0 7.978-1.37 12.365-4.107l.152-.096c.123.36.254.712.393 1.06 1.174 2.934 2.738 5.42 4.695 7.46 1.956 2.04 4.205 3.606 6.748 4.696 2.544 1.09 5.157 1.634 7.84 1.634 2.514 0 5.03-.42 7.544-1.257a40.947 40.947 0 0 0 7.252-3.228 43.998 43.998 0 0 0 6.413-4.4c1.955-1.622 3.604-3.214 4.945-4.78 1.788 4.528 3.912 7.98 6.37 10.354 2.46 2.374 5.534 3.562 9.223 3.562 3.074 0 6.148-.755 9.22-2.264a45.354 45.354 0 0 0 8.636-5.533 68.284 68.284 0 0 0 3.04-2.62c.278 1.686.732 3.216 1.36 4.59.756 1.65 1.832 2.963 3.23 3.94 1.396.98 3.24 1.468 5.532 1.468 1.844 0 3.465-.42 4.862-1.258 1.397-.838 2.655-2.403 3.773-4.694l21.965-43.592h1.34a368.41 368.41 0 0 0-1.676 12.533c-.448 3.885-.67 7.504-.67 10.857 0 8.55 1.047 15.048 3.142 19.49 2.096 4.444 4.68 6.666 7.755 6.666 3.074 0 6.008-.433 8.802-1.3a46.155 46.155 0 0 0 8.047-3.353 62.349 62.349 0 0 0 7.42-4.653l.603-.44c.236.39.482.776.738 1.153 1.76 2.6 3.968 4.68 6.622 6.245 2.655 1.565 5.8 2.348 9.43 2.348 2.572 0 5.13-.405 7.672-1.216a44.08 44.08 0 0 0 7.545-3.227 50.85 50.85 0 0 0 7.21-4.737 81.013 81.013 0 0 0 6.58-5.742c1.342 3.242 2.92 5.84 4.737 7.797 1.816 1.956 3.633 3.45 5.45 4.485 1.815 1.034 3.492 1.72 5.03 2.054 1.536.335 2.696.503 3.478.503 1.397 0 2.92-.24 4.57-.714a41.571 41.571 0 0 0 5.07-1.844 65.07 65.07 0 0 0 5.282-2.6c1.79-.977 3.493-1.97 5.114-2.975a136.04 136.04 0 0 0 9.037-6.17 31.287 31.287 0 0 0 2.7 3.865c2.626 3.213 5.91 5.77 9.85 7.67 3.94 1.9 8.537 2.85 13.79 2.85 3.354 0 6.665-.377 9.934-1.13a60.373 60.373 0 0 0 9.472-3.02 70.206 70.206 0 0 0 8.72-4.316c2.765-1.62 5.35-3.27 7.754-4.946.612-.434 1.222-.874 1.827-1.322.06 1.26.165 2.497.31 3.71.252 2.097.755 3.97 1.51 5.618.754 1.648 1.83 2.962 3.227 3.94 1.397.978 3.24 1.467 5.533 1.467 1.006 0 1.928-.182 2.766-.545.837-.363 1.62-.992 2.346-1.886.727-.895 1.44-2.054 2.138-3.48.7-1.425 1.44-3.227 2.222-5.407l15.006-41.832h1.34c.448 3.52 1.035 7 1.762 10.437.726 3.437 1.844 6.54 3.353 9.306 1.51 2.766 3.55 5 6.12 6.706 2.57 1.705 5.952 2.557 10.143 2.557 2.348 0 4.653-.35 6.916-1.05a44.172 44.172 0 0 0 6.54-2.598 62.857 62.857 0 0 0 5.91-3.31 507.824 507.824 0 0 0 4.946-3.187l1.257-19.616a70.453 70.453 0 0 1-7.713 5.53c-2.236 1.4-4.695 2.656-7.378 3.774-2.683 1.118-5.282 1.677-7.797 1.677a6.627 6.627 0 0 1-2.557-.502c-.81-.336-1.537-.91-2.18-1.72-.642-.81-1.16-1.885-1.55-3.227-.392-1.34-.587-3.017-.587-5.03 0-1.172.138-2.64.418-4.4.28-1.76.587-3.577.922-5.45.335-1.87.643-3.66.922-5.364.28-1.705.42-3.032.42-3.982 0-1.23-.224-2.333-.67-3.31a7.362 7.362 0 0 0-1.804-2.475 8.017 8.017 0 0 0-2.64-1.55 9.026 9.026 0 0 0-3.102-.546c-3.074 0-5.785.824-8.132 2.473-2.347 1.648-4.443 3.674-6.287 6.078a48.963 48.963 0 0 0-4.863 7.754 2095.733 2095.733 0 0 0-3.772 7.502h-.922c-.112-2.85-.168-5.742-.168-8.677v-7.503c0-1.732-.042-3.1-.126-4.107-.084-1.006-.32-1.775-.712-2.306-.392-.532-.992-.867-1.803-1.007-.81-.14-1.94-.21-3.394-.21-1.285 0-2.36.07-3.227.21-.868.14-1.594.42-2.18.84-.588.418-1.105.99-1.552 1.717-.447.727-.894 1.705-1.34 2.934-.728 1.845-1.454 4.192-2.18 7.042-.727 2.85-1.454 5.98-2.18 9.39-.727 3.41-1.412 7-2.054 10.772a287.03 287.03 0 0 0-1.645 10.86zm-296.84 9.55c0 1.398.096 2.754.292 4.067.196 1.313.545 2.487 1.048 3.52.503 1.035 1.173 1.873 2.012 2.516.838.643 1.9.964 3.185.964 2.068 0 3.94-.894 5.617-2.683 1.677-1.788 3.13-3.94 4.36-6.455a46.34 46.34 0 0 0 2.976-7.797c.754-2.683 1.243-4.918 1.467-6.707l5.113-24.647c-2.29 0-4.527.572-6.706 1.718-2.18 1.146-4.234 2.697-6.162 4.653-1.928 1.957-3.702 4.192-5.323 6.707a52.17 52.17 0 0 0-4.193 7.922 49.97 49.97 0 0 0-2.724 8.34c-.643 2.795-.964 5.422-.964 7.88zm176.298-36.215a35.24 35.24 0 0 0-9.85 7.084c-2.88 2.933-5.282 6.105-7.21 9.514-1.928 3.41-3.395 6.847-4.4 10.312-1.007 3.465-1.51 6.594-1.51 9.39 0 1.117.126 2.234.377 3.352a7.85 7.85 0 0 0 1.383 3.018c.67.894 1.62 1.62 2.85 2.18s2.823.838 4.78.838c1.005 0 1.997-.25 2.975-.754a13.141 13.141 0 0 0 2.808-1.97 22.024 22.024 0 0 0 2.558-2.767c.81-1.034 1.55-2.11 2.222-3.227 1.565-2.57 2.99-5.478 4.275-8.72-.167-.78-.307-2.025-.42-3.73-.11-1.704-.194-3.604-.25-5.7-.056-2.096-.112-4.262-.168-6.497a626.683 626.683 0 0 1-.126-6.12c-.027-1.845-.07-3.354-.124-4.528-.056-1.174-.112-1.732-.168-1.677zm39.4-60.778c.336-3.912.504-7.014.504-9.305 0-3.018-.265-5.114-.796-6.288-.53-1.173-1.3-1.76-2.306-1.76-1.788 0-3.41 1.13-4.862 3.395-1.453 2.262-2.738 5.155-3.856 8.676-1.118 3.52-2.096 7.405-2.934 11.652a226.368 226.368 0 0 0-2.096 12.324 310.638 310.638 0 0 0-1.342 10.73c-.335 3.186-.558 5.45-.67 6.79-.224 2.74-.405 5.38-.545 7.923s-.238 4.862-.294 6.958a217.077 217.077 0 0 0-.082 5.49v4.444a411.135 411.135 0 0 0 8.802-21.713c1.118-3.073 2.25-6.3 3.395-9.682a194.047 194.047 0 0 0 3.144-10.186c.95-3.41 1.773-6.762 2.472-10.06.7-3.297 1.188-6.427 1.467-9.39zm30.768 84.754c2.012 0 4.205-.515 6.58-1.55a29.558 29.558 0 0 0 6.623-3.98c2.04-1.622 3.758-3.383 5.155-5.283 1.397-1.9 2.096-3.744 2.096-5.533 0-2.515-.46-4.583-1.383-6.203-.922-1.62-2.053-2.43-3.395-2.43-2.403 0-4.457.447-6.16 1.34-1.706.895-3.13 2.055-4.277 3.48-1.146 1.425-2.068 3.046-2.766 4.862a33.05 33.05 0 0 0-1.594 5.49 41.958 41.958 0 0 0-.713 5.366 70.359 70.359 0 0 0-.167 4.443zm365.34 12.24c0 1.398.1 2.754.294 4.067.196 1.313.545 2.487 1.048 3.52.503 1.035 1.174 1.873 2.012 2.516.84.643 1.9.964 3.186.964 2.068 0 3.94-.894 5.617-2.683 1.676-1.788 3.13-3.94 4.36-6.455a46.421 46.421 0 0 0 2.975-7.797c.754-2.683 1.243-4.918 1.467-6.707l5.114-24.647c-2.293 0-4.528.572-6.708 1.718-2.18 1.146-4.233 2.697-6.162 4.653-1.928 1.957-3.702 4.192-5.323 6.707a52.244 52.244 0 0 0-4.19 7.922 49.98 49.98 0 0 0-2.726 8.34c-.642 2.795-.963 5.422-.963 7.88zm56.17 64.133c0 .447.096 1.173.292 2.18.196 1.005.517 2.01.964 3.017a9.717 9.717 0 0 0 1.76 2.683c.727.782 1.62 1.174 2.683 1.174.95 0 1.733-.517 2.347-1.55.615-1.035 1.118-2.418 1.51-4.15.39-1.733.67-3.69.838-5.87.167-2.18.307-4.414.42-6.706.11-2.29.18-4.526.21-6.705.026-2.18.096-4.136.208-5.87.168-3.017.293-5.573.377-7.67l.21-5.24c.056-1.564.112-2.877.168-3.94-1.062 1.845-2.096 3.983-3.102 6.414a127.347 127.347 0 0 0-2.85 7.586 141.475 141.475 0 0 0-2.43 7.88 192.145 192.145 0 0 0-1.887 7.336c-.53 2.263-.95 4.22-1.257 5.868-.308 1.65-.46 2.836-.46 3.563zm29.172-60.36c3.354-1.676 6.246-3.548 8.677-5.616 2.43-2.068 4.527-4.276 6.287-6.623 1.76-2.347 3.2-4.778 4.318-7.293a48.468 48.468 0 0 0 2.682-7.712c.28-1.23.46-2.67.545-4.317.084-1.648-.084-3.2-.503-4.652-.42-1.453-1.146-2.697-2.18-3.73-1.033-1.035-2.472-1.552-4.317-1.552-2.068 0-3.884.573-5.45 1.72-1.564 1.145-2.92 2.696-4.065 4.652-1.145 1.956-2.096 4.275-2.85 6.958-.755 2.682-1.37 5.56-1.844 8.635-.475 3.074-.81 6.274-1.006 9.6a168.766 168.766 0 0 0-.294 9.933zm56 1.93c.67 0 1.41.418 2.222 1.256a91.46 91.46 0 0 0 2.808 2.766c1.062 1.006 2.292 1.928 3.69 2.766 1.396.838 2.99 1.258 4.777 1.258 2.18 0 3.982-.364 5.407-1.09 1.426-.727 2.557-1.69 3.396-2.893.838-1.2 1.425-2.598 1.76-4.19.335-1.594.503-3.257.503-4.99 0-1.508-.097-3.045-.292-4.61a51.582 51.582 0 0 0-.755-4.485 60.449 60.449 0 0 0-1.006-4.024 154.062 154.062 0 0 0-.964-3.227l-21.545 21.462z" fill="#114D89"/><g fill="#378EE6"><path d="M698.666 1.17l.51-.5.36.306c6.993-1.284 12.93 4.308 11.566 12.452L662.57 303.272c-1.373 8.194-9.507 12.665-17.17 9.52l-74.116-30.4-45.065 70.82c-5.23 8.22-15.696 7.06-19.064-2.084l-40.7-110.492-95.31-33.244c-9.408-3.28-10.365-14.01-1.717-18.94L695.432 2.508a13.333 13.333 0 0 1 3.233-1.34zm-162.34 256.235l-8.01 63.958 36.92-58.02 82.79 33.96 43.43-259.363-155.13 219.465zm-149.99-60.95l84.084 29.328L657.232 41.945l-270.897 154.51zM512.78 322.05l8.81-70.358 127.154-179.89L481.3 236.585l31.482 85.466z" fill-rule="nonzero"/><path fill-rule="nonzero" d="M520.983 260.616l54.766 23.868 6.123-14.053-54.766-23.867"/><path d="M277.088 362.323c2.66-3.684 7.703-4.388 11.292-1.574 0 0 8.933 7.186 13.616 10.112 4.683 2.927 13.31 7.183 13.31 7.183a8.11 8.11 0 0 1 3.526 11.014l.382-.73a7.982 7.982 0 0 1-11.01 3.3s-12.66-6.94-17.16-9.864c-4.496-2.924-11.574-8.722-11.574-8.722-3.547-2.832-4.267-8.112-1.604-11.798l-.778 1.077zm74.89 34.949c.17-4.457 3.912-7.786 8.364-7.45 0 0 11.292.94 15.677.94 4.384 0 15.83-.67 15.83-.67a7.905 7.905 0 0 1 8.35 7.64l-.034-.893c.162 4.46-3.314 8.274-7.776 8.505 0 0-11.145.662-16.37.6-5.227-.06-16.267-.918-16.267-.918-4.446-.32-7.912-4.192-7.74-8.648l-.035.892zm77.397-6.088c-2.27-3.892-.772-8.535 3.335-10.383 0 0 7.748-3.4 10.718-5.04 2.97-1.64 11.383-6.834 11.383-6.834 3.842-2.354 8.558-.974 10.53 3.07l-.35-.715c1.974 4.05.466 9.256-3.363 11.61 0 0-6.328 3.97-9.632 5.743-3.304 1.773-11.534 5.458-11.534 5.458-4.096 1.866-9.26.22-11.53-3.667l.445.76z"/></g></g></svg>