<svg width="1024" height="227" viewBox="0 0 1024 227" xmlns="http://www.w3.org/2000/svg"><title>logo-text</title><path d="M932.426 140.834c-3.425 1.598-7.188 2.89-11.288 3.88-4.65 1.12-9.805 1.68-15.463 1.68l-.504-1.765c5.043-2.242 9.4-4.777 13.068-7.606 3.67-2.83 6.695-5.87 9.077-9.12 2.38-3.248 4.13-6.652 5.252-10.21a36.572 36.572 0 0 0 1.68-11.05c0-4.762-.644-8.782-1.932-12.06-1.29-3.277-3.054-5.952-5.295-8.025-2.24-2.074-4.846-3.573-7.815-4.497-2.97-.925-6.163-1.387-9.58-1.387-4.594 0-8.516.84-11.766 2.52a26.188 26.188 0 0 0-8.362 6.808c-2.325 2.858-4.23 6.22-5.715 10.085-1.485 3.865-2.717 7.955-3.698 12.268a160.37 160.37 0 0 0-2.276 12.242l-.54-2.493c-2.8 3.81-5.574 7.227-8.32 10.252a58.901 58.901 0 0 1-3.74 3.74 44.614 44.614 0 0 1-3.95 3.235c-1.316.952-2.618 1.722-3.907 2.31-1.288.59-2.52.883-3.698.883-1.568 0-2.59-.742-3.067-2.227-.476-1.484-.714-3.543-.714-6.176 0-3.08.28-6.345.84-9.79.56-3.446 1.177-6.89 1.85-10.337.67-3.445 1.288-6.807 1.848-10.084.56-3.278.84-6.26.84-8.95 0-1.737-.154-3.11-.462-4.118-.308-1.01-.742-1.793-1.303-2.353-.56-.56-1.204-.925-1.932-1.093-.73-.17-1.513-.253-2.354-.253-.615 0-1.245.014-1.89.042a45.12 45.12 0 0 1-1.89.04c-.73 0-1.443-.04-2.143-.125a7.746 7.746 0 0 1-2.06-.546 3.926 3.926 0 0 1-1.68-1.346c-.448-.616-.91-1.246-1.386-1.89a7.553 7.553 0 0 0-1.806-1.723c-.73-.504-1.737-.756-3.026-.756-3.865 0-7.66.827-11.387 2.48-3.724 1.652-7.268 3.88-10.63 6.68-3.36 2.802-6.456 6.08-9.286 9.833a73.78 73.78 0 0 0-7.353 11.975 70.793 70.793 0 0 0-4.873 12.984c-.2.757-.385 1.51-.552 2.26a96.214 96.214 0 0 1-2.474 3.118 87.65 87.65 0 0 1-4.032 4.58 42.18 42.18 0 0 1-4.244 3.95c-1.43 1.15-2.858 2.073-4.286 2.774-1.43.7-2.787 1.05-4.076 1.05-2.297 0-4.048-.742-5.252-2.227-1.205-1.484-1.807-3.88-1.807-7.184 0-2.633.322-5.757.966-9.37.644-3.614 1.442-7.55 2.394-11.808a2556.23 2556.23 0 0 1 3.068-13.53 417.23 417.23 0 0 0 3.067-14.58c.95-4.96 1.75-9.973 2.394-15.043.644-5.07.967-10.015.967-14.833 0-5.154-.476-10.042-1.428-14.664-.953-4.622-2.325-8.656-4.118-12.102-1.793-3.445-4.02-6.177-6.68-8.193-2.662-2.017-5.7-3.026-9.12-3.026-4.93 0-9.69 1.233-14.285 3.698-4.596 2.465-8.88 6.01-12.86 10.63-3.977 4.623-7.563 10.24-10.756 16.85-3.194 6.61-5.883 14.062-8.068 22.354l-1.764.083c.504-3.922.98-7.563 1.428-10.925.168-1.4.35-2.815.546-4.244.197-1.428.365-2.76.505-3.99.14-1.234.253-2.326.337-3.28.084-.95.126-1.652.126-2.1 0-4.93-.434-9.188-1.303-12.774-.868-3.585-2.087-6.554-3.655-8.908-1.57-2.353-3.446-4.09-5.63-5.21-2.186-1.12-4.567-1.68-7.144-1.68-3.473 0-6.974.952-10.504 2.857-3.53 1.904-7.017 4.593-10.463 8.066-3.445 3.474-6.793 7.634-10.042 12.48-3.25 4.846-6.316 10.252-9.2 16.22-2.886 5.966-5.548 12.38-7.985 19.244-2.437 6.863-4.552 14.02-6.345 21.47.84-4.032 1.71-8.374 2.606-13.024.896-4.65 1.722-9.287 2.48-13.91.755-4.62 1.385-9.033 1.89-13.235.504-4.2.756-7.87.756-11.008 0-4.09-.266-7.815-.8-11.177-.53-3.36-1.47-6.232-2.814-8.613-1.344-2.38-3.165-4.23-5.462-5.547-2.297-1.316-5.183-1.975-8.656-1.975-2.69 0-5.505.56-8.446 1.68-2.94 1.12-5.827 3.012-8.656 5.674-2.83 2.66-5.518 6.218-8.067 10.672-2.55 4.454-4.832 9.987-6.848 16.598a1.137 1.137 0 0 0-.337.84c0 .616.084 1.303.252 2.06.17.755.38 1.47.63 2.142.253.672.533 1.247.84 1.723.31.475.603.713.884.713.897 0 1.71-.182 2.438-.546.728-.364 1.26-.967 1.596-1.807a58.8 58.8 0 0 1 5.883-6.765c2.13-2.1 4.258-3.936 6.387-5.504 2.13-1.568 4.16-2.815 6.093-3.74 1.932-.924 3.57-1.386 4.916-1.386.84 0 1.47.252 1.89.757.42.505.715 1.107.883 1.807.168.7.252 1.443.252 2.227v1.933l-1.26 16.388a673.875 673.875 0 0 1-1.303 14.832 467.515 467.515 0 0 1-1.64 14.287 399.706 399.706 0 0 1-5.208 30.674 655.895 655.895 0 0 1-4.118 18.278 54.201 54.201 0 0 0-1.008 5.84c-.224 1.933-.337 4.048-.337 6.345 0 1.178.31 2.228.925 3.153.616.924 1.457 1.708 2.52 2.353 1.066.644 2.284 1.12 3.657 1.428a19.32 19.32 0 0 0 4.244.463c1.23 0 2.52-.127 3.864-.38a13.41 13.41 0 0 0 3.782-1.3 9.364 9.364 0 0 0 3.025-2.522c.842-1.065 1.374-2.437 1.598-4.118.728-5.38 1.82-11.135 3.278-17.27a350.14 350.14 0 0 1 5.042-18.824 395.54 395.54 0 0 1 6.26-19.245 375.249 375.249 0 0 1 7.06-18.446c2.437-5.883 4.888-11.36 7.353-16.43 2.466-5.07 4.86-9.482 7.186-13.236 2.325-3.753 4.496-6.695 6.513-8.824 2.016-2.13 3.81-3.193 5.378-3.193 1.905 0 3.43.503 4.58 1.512 1.148 1.008 2.03 2.465 2.647 4.37.616 1.904 1.008 4.23 1.176 6.975.17 2.745.254 5.854.254 9.328 0 5.042-.337 10.56-1.01 16.555a328.076 328.076 0 0 1-2.562 18.194 546.771 546.771 0 0 1-3.362 18.07 3457.865 3457.865 0 0 1-3.36 16.302 674.346 674.346 0 0 0-2.564 12.774c-.673 3.557-1.01 6.064-1.01 7.52 0 2.186.267 4.035.8 5.548.532 1.512 1.232 2.76 2.1 3.74.87.98 1.877 1.694 3.026 2.142a9.53 9.53 0 0 0 3.488.672 18 18 0 0 0 4.033-.462 14.405 14.405 0 0 0 3.824-1.47 11.508 11.508 0 0 0 3.194-2.648c.925-1.092 1.61-2.423 2.06-3.99 1.008-5.604 2.1-11.543 3.277-17.817a947.19 947.19 0 0 1 3.782-19.077 538.772 538.772 0 0 1 4.37-19.203 302.587 302.587 0 0 1 5.083-18.236c1.82-5.8 3.754-11.192 5.798-16.178 2.046-4.986 4.245-9.3 6.598-12.942 2.354-3.64 4.847-6.5 7.48-8.572 2.633-2.073 5.434-3.11 8.404-3.11 1.568 0 2.83.393 3.78 1.177.954.785 1.682 1.89 2.186 3.32s.84 3.165 1.01 5.21c.167 2.045.25 4.328.25 6.85 0 4.145-.28 8.473-.84 12.983-.56 4.51-1.26 9.076-2.1 13.698a419.5 419.5 0 0 1-2.774 13.91c-1.008 4.65-1.975 9.215-2.9 13.697a407.639 407.639 0 0 0-2.478 13.068c-.728 4.23-1.205 8.222-1.43 11.976a26.704 26.704 0 0 0-.165 2.94c0 4.034.67 7.606 2.016 10.715 1.345 3.11 3.137 5.715 5.378 7.816a22.554 22.554 0 0 0 7.69 4.748 25.431 25.431 0 0 0 8.866 1.596c3.137 0 6.29-.476 9.454-1.428 3.166-.953 6.29-2.507 9.37-4.664 2.162-1.514 4.297-3.337 6.404-5.47 1.032 2.05 2.287 3.845 3.765 5.386a20.46 20.46 0 0 0 6.765 4.706c2.55 1.092 5.168 1.64 7.857 1.64 2.522 0 5.043-.422 7.564-1.262a41.2 41.2 0 0 0 7.268-3.235 44.288 44.288 0 0 0 6.43-4.412c1.96-1.625 3.613-3.222 4.957-4.79 1.793 4.537 3.922 7.997 6.387 10.378 2.465 2.382 5.547 3.573 9.244 3.573 3.082 0 6.163-.757 9.244-2.27a44.847 44.847 0 0 0 5.132-2.95 269.437 269.437 0 0 0-2.61 4.8 232.813 232.813 0 0 0-4.75 9.538c-1.54 3.278-2.926 6.5-4.158 9.665-1.233 3.166-2.213 6.19-2.942 9.076-.728 2.886-1.092 5.478-1.092 7.775 0 3.977.266 7.745.798 11.303.532 3.557 1.43 6.667 2.69 9.328 1.26 2.66 2.955 4.776 5.084 6.345 2.13 1.57 4.79 2.354 7.983 2.354 3.978 0 7.816-1.597 11.513-4.79 3.698-3.194 6.975-7.732 9.833-13.614 2.858-5.883 5.14-12.984 6.85-21.304 1.71-8.32 2.563-17.578 2.563-27.774v-1.513c4.65.67 8.334 1.245 11.05 1.722 2.718.476 4.805.854 6.262 1.134l3.067.588c.588.112 1.08.168 1.47.168 3.25 0 6.542-.462 9.875-1.386a51.046 51.046 0 0 0 9.54-3.698 48.92 48.92 0 0 0 6.803-4.182c.184.355.38.698.59 1.03a15.975 15.975 0 0 0 5.253 5.17c2.157 1.316 4.664 2.282 7.522 2.898 2.857.617 5.938.925 9.244.925 4.593 0 9.453-.52 14.58-1.556a109.476 109.476 0 0 0 15.21-4.244 118.021 118.021 0 0 0 14.37-6.22c4.567-2.352 8.586-4.873 12.06-7.562l-.084-18.824c-2.69 2.016-5.364 3.74-8.026 5.168-2.66 1.43-5.252 2.73-7.773 3.908a3035.58 3035.58 0 0 0-7.27 3.403 50.182 50.182 0 0 0-6.512 3.656c0-3.587-.126-6.696-.378-9.33-.253-2.633-.59-4.958-1.01-6.975-.42-2.016-.853-3.795-1.302-5.336a319.037 319.037 0 0 0-1.302-4.37 35.728 35.728 0 0 1-1.01-4.203c-.25-1.428-.377-3.01-.377-4.748.168-.617.827-1.556 1.975-2.816a163.02 163.02 0 0 0 3.657-4.16 46.9 46.9 0 0 0 3.53-4.706c1.064-1.625 1.596-3.11 1.596-4.454 0-.672-.056-1.47-.168-2.395-.112-.926-.504-1.808-1.177-2.648-.672-.84-1.736-1.555-3.193-2.143-1.457-.59-3.53-.884-6.22-.884-1.623 0-3.094.238-4.41.715a15.683 15.683 0 0 0-3.614 1.85 18.698 18.698 0 0 0-2.983 2.563 29.61 29.61 0 0 0-2.437 2.94c-3.585 4.483-6.5 8.223-8.74 11.22s-4.146 5.532-5.714 7.605l-4.076 5.38a56.002 56.002 0 0 1-3.824 4.495c-1.4 1.484-3.08 3.123-5.042 4.916-1.96 1.792-4.51 4.033-7.648 6.722-.448.392-1.12.924-2.016 1.597a24.913 24.913 0 0 0-2.69 2.352c-.896.896-1.68 1.92-2.353 3.067a7.272 7.272 0 0 0-1.008 3.74c0 .35.008.68.026.994zm-438.63-16.285c-1.865 1.7-4.02 3.477-6.46 5.33a92.517 92.517 0 0 1-10.002 6.597 69.448 69.448 0 0 1-10.882 5.043c-3.726 1.344-7.27 2.016-10.63 2.016-1.066 0-2.06-.112-2.985-.336a8.269 8.269 0 0 1-2.647-1.176c-.84-.56-1.667-1.345-2.48-2.353-.81-1.008-1.638-2.268-2.478-3.78 4.874-1.346 9.398-3.222 13.572-5.63 4.174-2.41 7.774-5.156 10.8-8.237 3.024-3.082 5.39-6.36 7.1-9.833s2.563-6.947 2.563-10.42c0-3.194-.56-6.08-1.68-8.656-1.12-2.577-2.676-4.776-4.665-6.597-1.988-1.82-4.327-3.236-7.017-4.244-2.69-1.008-5.602-1.513-8.74-1.513-3.865 0-7.38.687-10.546 2.06a30.786 30.786 0 0 0-8.573 5.546c-2.55 2.325-4.776 5.014-6.68 8.067a53.746 53.746 0 0 0-4.75 9.623 57.87 57.87 0 0 0-2.815 10.294c-.616 3.502-.924 6.82-.924 9.96 0 1.167.04 2.322.125 3.463-1.5 1.182-2.97 2.296-4.41 3.343-1.346.952-2.732 1.89-4.16 2.815a51.833 51.833 0 0 1-4.245 2.48c-1.4.73-2.73 1.303-3.992 1.723-1.26.42-2.423.63-3.487.63-1.122 0-2.06-.336-2.816-1.008-.757-.673-1.36-1.583-1.807-2.73-.448-1.15-.77-2.453-.967-3.91a34.66 34.66 0 0 1-.294-4.62c0-1.29.084-2.62.252-3.993.168-1.373.38-2.717.63-4.034.253-1.316.52-2.535.8-3.656.28-1.12.56-2.072.84-2.857a465.135 465.135 0 0 1 8.99-20.42 340.547 340.547 0 0 0 8.573-19.834 207.98 207.98 0 0 0 6.892-20.546c1.96-7.03 3.306-14.497 4.034-22.396.168-2.073.252-4.09.252-6.05 0-3.194-.252-6.29-.756-9.287-.504-2.996-1.33-5.63-2.48-7.9-1.148-2.268-2.646-4.088-4.495-5.46-1.85-1.374-4.09-2.06-6.723-2.06-3.586 0-7.06 1.106-10.42 3.32-3.362 2.212-6.528 5.28-9.497 9.202-2.97 3.92-5.7 8.57-8.194 13.95-2.493 5.378-4.664 11.233-6.513 17.564-1.85 6.33-3.333 12.998-4.454 20a157.904 157.904 0 0 0-1.933 21.262c-4.258.392-8.263 1.373-12.017 2.942a48.85 48.85 0 0 0-10.42 5.924 49.317 49.317 0 0 0-8.573 8.152 53.819 53.819 0 0 0-6.428 9.748 50.278 50.278 0 0 0-4.034 10.673c-.924 3.67-1.386 7.297-1.386 10.883 0 1.216.052 2.42.155 3.608a44.008 44.008 0 0 1-3.56 2.57c-1.26.81-2.436 1.47-3.53 1.974-1.09.504-2.058.756-2.898.756-1.85 0-3.208-1.12-4.076-3.36-.87-2.243-1.303-5.1-1.303-8.573 0-2.073.126-4.342.378-6.807.254-2.466.576-4.96.968-7.48a184.3 184.3 0 0 1 1.302-7.395c.477-2.41.91-4.622 1.303-6.64a268.3 268.3 0 0 0 .967-5.21c.252-1.456.378-2.493.378-3.11 0-4.145-.827-7.394-2.48-9.747-1.652-2.353-3.88-3.53-6.68-3.53-2.802 0-5.35.56-7.648 1.68-2.297 1.122-4.342 3.194-6.135 6.22-.392.672-.98 1.71-1.764 3.11s-1.652 3.01-2.605 4.83a309.544 309.544 0 0 1-3.067 5.716 478.002 478.002 0 0 0-3.067 5.672l-2.52 4.75c-.73 1.37-1.26 2.366-1.597 2.982h-1.68c0-.392.083-1.163.25-2.31.17-1.15.38-2.494.63-4.035.254-1.54.52-3.22.8-5.04.28-1.822.546-3.587.798-5.296.253-1.708.463-3.277.63-4.706.17-1.428.254-2.563.254-3.403 0-3.082-.59-5.547-1.765-7.396-1.178-1.85-3.28-2.774-6.304-2.774-3.025 0-5.42.87-7.185 2.605-1.764 1.738-2.955 3.895-3.57 6.472-.785 3.306-1.598 7.284-2.438 11.934-.84 4.65-1.597 9.482-2.27 14.496a364.208 364.208 0 0 0-1.44 12.31 112.483 112.483 0 0 1-3.35 3.867 58.64 58.64 0 0 1-3.74 3.74 44.326 44.326 0 0 1-3.95 3.235c-1.315.952-2.618 1.722-3.906 2.31-1.29.59-2.52.883-3.698.883-1.57 0-2.59-.742-3.067-2.227-.476-1.484-.714-3.543-.714-6.176 0-3.08.28-6.345.84-9.79.56-3.446 1.177-6.89 1.85-10.337a438.507 438.507 0 0 0 1.848-10.084c.56-3.278.84-6.26.84-8.95 0-1.737-.153-3.11-.462-4.118-.308-1.01-.742-1.793-1.302-2.353a3.956 3.956 0 0 0-1.933-1.093 10.34 10.34 0 0 0-2.353-.253c-.616 0-1.247.014-1.89.042-.645.027-1.275.04-1.892.04-.728 0-1.442-.04-2.143-.125a7.746 7.746 0 0 1-2.06-.546 3.915 3.915 0 0 1-1.68-1.346c-.45-.616-.91-1.246-1.387-1.89a7.54 7.54 0 0 0-1.807-1.723c-.728-.504-1.737-.756-3.025-.756-3.865 0-7.66.827-11.386 2.48-3.726 1.652-7.27 3.88-10.63 6.68-3.363 2.802-6.458 6.08-9.287 9.833a73.856 73.856 0 0 0-7.354 11.975 70.87 70.87 0 0 0-4.874 12.984 53.038 53.038 0 0 0-1.43 7.39l-.293.13c-1.71.758-3.376 1.136-5 1.136-1.625 0-3.152-.224-4.58-.672-1.43-.45-2.662-1.177-3.698-2.185-1.038-1.01-1.864-2.283-2.48-3.824-.617-1.54-.925-3.403-.925-5.588 0-.896.35-2.997 1.05-6.302.7-3.306 1.57-7.368 2.606-12.186a1206.935 1206.935 0 0 0 3.362-16.22 522.092 522.092 0 0 0 3.362-18.487 370.703 370.703 0 0 0 2.605-18.95c.7-6.304 1.05-12.172 1.05-17.607 0-1.96-.225-3.57-.673-4.832-.448-1.26-1.092-2.27-1.933-3.025a7.14 7.14 0 0 0-2.983-1.597c-1.148-.308-2.422-.462-3.823-.462-1.793 0-3.543.154-5.252.462-1.71.308-3.236.938-4.58 1.89-1.345.953-2.45 2.298-3.32 4.035-.868 1.737-1.386 4.034-1.555 6.892-.168 2.745-.462 6.54-.882 11.387-.42 4.845-.994 10.307-1.723 16.386a499.366 499.366 0 0 1-2.73 19.37 351.774 351.774 0 0 1-3.867 20.338c-1.484 6.723-3.193 13.166-5.126 19.33-1.933 6.16-4.118 11.582-6.555 16.26-2.437 4.678-5.126 8.418-8.068 11.22-2.942 2.8-6.205 4.2-9.79 4.2-2.074 0-3.81-.755-5.21-2.268-1.402-1.513-2.536-3.698-3.405-6.555-.868-2.856-1.484-6.316-1.85-10.378-.363-4.062-.545-8.614-.545-13.656 0-4.93.224-10.337.672-16.22a455.948 455.948 0 0 1 1.723-17.857c.7-6.024 1.457-11.893 2.27-17.607.812-5.715 1.568-10.827 2.268-15.337l1.723-11.093c.448-2.885.672-4.524.672-4.916 0-1.177-.168-2.24-.504-3.194-.336-.952-.91-1.764-1.723-2.437-.81-.672-1.904-1.204-3.276-1.596-1.373-.393-3.124-.59-5.253-.59-2.24 0-4.214.253-5.923.758a10.843 10.843 0 0 0-4.496 2.605c-1.288 1.232-2.394 2.885-3.32 4.958-.923 2.074-1.72 4.65-2.394 7.732-3.64 19.105-7.815 36.165-12.52 51.18a323.334 323.334 0 0 1-4.287 12.647 169.385 169.385 0 0 1-4.833 11.933c-1.71 3.78-3.488 7.297-5.337 10.546-1.85 3.25-3.782 6.05-5.798 8.403-2.017 2.353-4.104 4.202-6.26 5.547-2.158 1.344-4.385 2.016-6.682 2.016-2.297 0-4.286-.728-5.967-2.185-1.68-1.455-3.08-3.458-4.202-6.007-1.12-2.55-1.946-5.547-2.478-8.992-.532-3.445-.798-7.156-.798-11.134 0-4.874.462-10.155 1.386-15.84a243.844 243.844 0 0 1 3.488-17.355c1.4-5.882 2.913-11.68 4.538-17.395a5699.33 5699.33 0 0 1 4.538-15.883c1.4-4.874 2.563-9.174 3.487-12.9.926-3.726 1.388-6.54 1.388-8.446 0-1.68-.182-3.01-.546-3.992-.364-.98-.897-1.736-1.597-2.27-.7-.53-1.555-.88-2.563-1.05-1.008-.167-2.13-.25-3.362-.25-1.512 0-3.01.083-4.496.25-1.484.17-2.955.687-4.412 1.556-1.456.868-2.885 2.213-4.285 4.033-1.4 1.82-2.802 4.356-4.202 7.606a206.267 206.267 0 0 0-6.303 17.983 205.794 205.794 0 0 0-4.664 18.656 209.114 209.114 0 0 0-2.9 18.782A169.297 169.297 0 0 0 0 111.35c0 9.692.77 18.166 2.31 25.42 1.542 7.257 3.587 13.293 6.136 18.112 2.55 4.818 5.504 8.445 8.866 10.882 3.36 2.438 6.89 3.656 10.59 3.656 6.44 0 12.31-1.106 17.604-3.32 5.295-2.212 10-5.924 14.12-11.134 4.117-5.21 7.702-12.116 10.756-20.716 3.053-8.6 5.588-19.286 7.605-32.06-.168 1.85-.392 3.95-.672 6.303-.28 2.353-.42 4.874-.42 7.563 0 7.34.532 14.26 1.596 20.757 1.066 6.5 2.76 12.158 5.086 16.976 2.325 4.817 5.35 8.627 9.076 11.428 3.725 2.8 8.25 4.202 13.572 4.202 4.202 0 8.277-.798 12.227-2.395 3.95-1.597 7.733-3.866 11.346-6.807 3.614-2.94 7.03-6.5 10.253-10.673 3.22-4.174 6.232-8.866 9.033-14.076.336 2.688.924 5.013 1.765 6.974.84 1.96 1.89 3.558 3.15 4.79a11.932 11.932 0 0 0 4.33 2.73c1.624.59 3.36.884 5.21.884 3.865 0 7.997-1.373 12.395-4.118l.153-.096c.123.36.254.714.393 1.062 1.176 2.942 2.745 5.435 4.705 7.48a20.46 20.46 0 0 0 6.765 4.706c2.55 1.092 5.17 1.64 7.858 1.64 2.52 0 5.042-.422 7.563-1.262a41.089 41.089 0 0 0 7.27-3.235 44.125 44.125 0 0 0 6.43-4.412c1.96-1.625 3.613-3.222 4.958-4.79 1.793 4.537 3.92 7.997 6.387 10.378 2.465 2.382 5.546 3.573 9.244 3.573 3.08 0 6.162-.757 9.243-2.27a45.4 45.4 0 0 0 8.656-5.546 68.462 68.462 0 0 0 3.045-2.627c.28 1.69.735 3.224 1.366 4.602.757 1.653 1.836 2.97 3.236 3.95 1.4.98 3.25 1.47 5.547 1.47 1.85 0 3.473-.42 4.874-1.26 1.4-.84 2.66-2.41 3.782-4.706l22.017-43.7h1.344c-.67 4.482-1.23 8.67-1.68 12.564-.448 3.894-.672 7.52-.672 10.883 0 8.572 1.05 15.084 3.15 19.538 2.102 4.456 4.694 6.682 7.775 6.682 3.08 0 6.023-.434 8.824-1.302 2.8-.868 5.49-1.99 8.068-3.362a62.22 62.22 0 0 0 7.437-4.664l.605-.44c.237.39.483.777.74 1.155 1.764 2.604 3.977 4.69 6.638 6.26 2.662 1.568 5.813 2.352 9.455 2.352 2.577 0 5.14-.406 7.69-1.218a44.093 44.093 0 0 0 7.563-3.236 50.858 50.858 0 0 0 7.227-4.748 81.594 81.594 0 0 0 6.597-5.756c1.344 3.25 2.927 5.854 4.748 7.815 1.82 1.96 3.642 3.46 5.462 4.495 1.82 1.037 3.502 1.723 5.043 2.06 1.54.335 2.703.503 3.487.503 1.4 0 2.928-.238 4.58-.714a41.325 41.325 0 0 0 5.085-1.85 65.487 65.487 0 0 0 5.294-2.604c1.793-.98 3.5-1.975 5.126-2.983a136.594 136.594 0 0 0 9.06-6.185 31.323 31.323 0 0 0 2.706 3.874c2.633 3.22 5.924 5.784 9.874 7.69 3.95 1.904 8.558 2.856 13.824 2.856 3.362 0 6.68-.378 9.96-1.134a60.516 60.516 0 0 0 9.495-3.025 70.331 70.331 0 0 0 8.74-4.328 115.979 115.979 0 0 0 7.774-4.96c.615-.433 1.225-.875 1.832-1.323a53.69 53.69 0 0 0 .31 3.72c.253 2.1.758 3.977 1.514 5.63s1.835 2.97 3.235 3.95 3.25 1.47 5.547 1.47c1.008 0 1.933-.182 2.773-.546.84-.364 1.625-.994 2.353-1.89.73-.897 1.443-2.06 2.143-3.488.7-1.43 1.444-3.236 2.228-5.42l15.043-41.935h1.346c.448 3.53 1.036 7.017 1.764 10.462.73 3.446 1.85 6.555 3.362 9.328 1.513 2.774 3.557 5.015 6.135 6.723 2.577 1.71 5.966 2.564 10.168 2.564 2.353 0 4.664-.35 6.933-1.05a44.34 44.34 0 0 0 6.555-2.606 62.832 62.832 0 0 0 5.925-3.32c1.85-1.176 3.5-2.24 4.958-3.193l1.26-19.664a70.358 70.358 0 0 1-7.73 5.547c-2.242 1.4-4.707 2.66-7.396 3.78-2.69 1.122-5.294 1.682-7.816 1.682-.896 0-1.75-.168-2.563-.504-.81-.335-1.54-.91-2.184-1.722-.644-.812-1.162-1.89-1.554-3.235-.393-1.345-.59-3.026-.59-5.043 0-1.176.14-2.647.42-4.412.282-1.764.59-3.585.926-5.462.336-1.877.644-3.67.924-5.378.28-1.71.42-3.04.42-3.992 0-1.233-.224-2.34-.672-3.32a7.369 7.369 0 0 0-1.807-2.48 8.084 8.084 0 0 0-2.647-1.554 9.09 9.09 0 0 0-3.11-.546c-3.08 0-5.798.827-8.15 2.48-2.354 1.652-4.455 3.683-6.304 6.092-1.85 2.41-3.473 5-4.874 7.774-1.4 2.773-2.66 5.28-3.782 7.52h-.924a221.994 221.994 0 0 1-.168-8.697v-7.52c0-1.738-.042-3.11-.126-4.12-.084-1.008-.322-1.778-.714-2.31-.393-.532-.995-.87-1.807-1.01-.813-.14-1.947-.21-3.404-.21-1.288 0-2.367.07-3.235.21-.87.14-1.597.422-2.185.842-.59.42-1.107.994-1.555 1.722-.448.728-.896 1.708-1.345 2.94-.728 1.85-1.456 4.203-2.185 7.06a247.227 247.227 0 0 0-2.185 9.412 267 267 0 0 0-2.058 10.8 291.99 291.99 0 0 0-1.65 10.887zm-297.568 9.574c0 1.4.098 2.76.294 4.076.196 1.317.547 2.493 1.05 3.53.505 1.036 1.177 1.877 2.018 2.52.84.645 1.905.967 3.193.967 2.073 0 3.95-.896 5.63-2.69 1.68-1.792 3.138-3.95 4.37-6.47a46.203 46.203 0 0 0 2.984-7.815c.756-2.69 1.246-4.93 1.47-6.723l5.127-24.71c-2.297 0-4.538.576-6.723 1.724-2.184 1.15-4.243 2.703-6.176 4.664-1.933 1.96-3.712 4.202-5.336 6.723a52.484 52.484 0 0 0-4.202 7.943 50.013 50.013 0 0 0-2.73 8.362c-.646 2.8-.968 5.434-.968 7.9zM372.96 97.82a35.337 35.337 0 0 0-9.875 7.1c-2.885 2.942-5.294 6.122-7.227 9.54-1.933 3.417-3.404 6.862-4.412 10.336-1.01 3.474-1.513 6.61-1.513 9.412 0 1.12.126 2.24.378 3.362a7.868 7.868 0 0 0 1.388 3.025c.672.897 1.625 1.625 2.857 2.185 1.233.56 2.83.84 4.79.84 1.01 0 2.003-.252 2.984-.756a13.13 13.13 0 0 0 2.814-1.975 22.355 22.355 0 0 0 2.563-2.774 31.425 31.425 0 0 0 2.227-3.235c1.57-2.577 2.998-5.49 4.286-8.74-.168-.784-.308-2.03-.42-3.74a148.468 148.468 0 0 1-.252-5.714c-.056-2.1-.112-4.27-.168-6.513-.056-2.24-.098-4.285-.126-6.134-.028-1.85-.07-3.363-.126-4.54-.056-1.176-.112-1.736-.168-1.68zm39.497-60.927c.336-3.922.505-7.032.505-9.33 0-3.024-.267-5.125-.8-6.3-.53-1.178-1.3-1.766-2.31-1.766-1.793 0-3.417 1.134-4.874 3.403-1.457 2.27-2.745 5.17-3.866 8.698-1.12 3.53-2.1 7.424-2.94 11.68a226.89 226.89 0 0 0-2.102 12.355c-.56 3.978-1.01 7.563-1.345 10.757-.336 3.193-.56 5.462-.672 6.807a300.299 300.299 0 0 0-.546 7.94c-.14 2.55-.238 4.876-.294 6.977-.056 2.1-.084 3.935-.084 5.504v4.454a413.646 413.646 0 0 0 8.823-21.766c1.12-3.08 2.255-6.317 3.403-9.706 1.15-3.39 2.2-6.793 3.152-10.21a166.63 166.63 0 0 0 2.48-10.085c.7-3.306 1.19-6.443 1.47-9.412zm30.842 84.962c2.016 0 4.215-.518 6.596-1.555a29.686 29.686 0 0 0 6.64-3.992c2.044-1.624 3.767-3.39 5.167-5.294 1.4-1.905 2.1-3.754 2.1-5.547 0-2.52-.46-4.594-1.385-6.218-.925-1.626-2.06-2.44-3.404-2.44-2.41 0-4.468.45-6.177 1.346-1.708.897-3.137 2.06-4.286 3.488-1.147 1.428-2.07 3.053-2.772 4.874a33.154 33.154 0 0 0-1.596 5.504 41.625 41.625 0 0 0-.715 5.38 70.706 70.706 0 0 0-.168 4.453zm366.236 12.27c0 1.4.098 2.758.294 4.075.196 1.317.546 2.493 1.05 3.53.504 1.036 1.177 1.877 2.017 2.52.84.645 1.905.967 3.194.967 2.074 0 3.95-.896 5.63-2.69 1.682-1.792 3.14-3.95 4.37-6.47a46.118 46.118 0 0 0 2.984-7.815c.757-2.69 1.247-4.93 1.47-6.723l5.127-24.71c-2.296 0-4.537.576-6.722 1.724-2.185 1.15-4.244 2.703-6.176 4.664-1.933 1.96-3.712 4.202-5.337 6.723a52.574 52.574 0 0 0-4.202 7.943 50.105 50.105 0 0 0-2.73 8.362c-.645 2.8-.967 5.434-.967 7.9zm56.305 64.288c0 .448.1 1.177.295 2.185.196 1.01.518 2.017.967 3.025a9.714 9.714 0 0 0 1.764 2.69c.73.784 1.625 1.176 2.69 1.176.952 0 1.736-.52 2.353-1.555.615-1.037 1.12-2.424 1.51-4.16.393-1.737.674-3.698.842-5.883.168-2.185.308-4.426.42-6.723.112-2.298.182-4.54.21-6.724.028-2.185.098-4.146.21-5.883.168-3.025.294-5.588.378-7.69l.21-5.25c.056-1.57.112-2.887.168-3.95-1.064 1.848-2.1 3.99-3.11 6.428a126.9 126.9 0 0 0-2.856 7.606 140.023 140.023 0 0 0-2.437 7.9 186.1 186.1 0 0 0-1.89 7.353 130.64 130.64 0 0 0-1.262 5.882c-.308 1.652-.462 2.843-.462 3.57zm29.246-60.507c3.362-1.68 6.26-3.558 8.698-5.63 2.437-2.074 4.538-4.286 6.303-6.64 1.765-2.353 3.207-4.79 4.328-7.31a48.828 48.828 0 0 0 2.69-7.732c.28-1.233.46-2.676.545-4.328.084-1.653-.084-3.208-.504-4.664-.42-1.457-1.15-2.704-2.185-3.74-1.035-1.037-2.478-1.555-4.327-1.555-2.073 0-3.894.575-5.462 1.723-1.568 1.15-2.927 2.703-4.075 4.664-1.15 1.96-2.1 4.286-2.857 6.975-.757 2.688-1.373 5.574-1.85 8.655-.476 3.082-.812 6.29-1.008 9.622a169.656 169.656 0 0 0-.294 9.96zm56.137 1.933c.673 0 1.415.42 2.227 1.26a90.9 90.9 0 0 0 2.816 2.773c1.064 1.008 2.297 1.932 3.697 2.773 1.4.84 2.998 1.26 4.79 1.26 2.185 0 3.992-.364 5.42-1.092 1.43-.728 2.564-1.695 3.404-2.9.84-1.204 1.43-2.605 1.765-4.2.336-1.598.504-3.265.504-5a37.28 37.28 0 0 0-.294-4.624 51.905 51.905 0 0 0-.756-4.496 59.329 59.329 0 0 0-1.01-4.033c-.363-1.26-.685-2.338-.965-3.235l-21.597 21.514z" fill="#114D89" fill-rule="evenodd"/></svg>