<svg width="440" height="406" viewBox="0 0 440 406" xmlns="http://www.w3.org/2000/svg"><title>logo-icon</title><g fill="#378EE6" fill-rule="evenodd"><path d="M426.87 1.17l.51-.5.36.306c6.992-1.284 12.93 4.308 11.565 12.452l-48.533 289.844c-1.372 8.194-9.505 12.665-17.17 9.52l-74.114-30.4-45.065 70.82c-5.23 8.22-15.695 7.06-19.063-2.084l-40.7-110.492-95.31-33.244c-9.41-3.28-10.366-14.01-1.718-18.94L423.636 2.508a13.372 13.372 0 0 1 3.234-1.34zM264.53 257.405l-8.01 63.958 36.92-58.02 82.79 33.96L419.657 37.94l-155.13 219.465zm-149.99-60.95l84.084 29.328 186.81-183.838-270.895 154.51zM240.984 322.05l8.81-70.358L376.95 71.802 209.503 236.585l31.48 85.466z" fill-rule="nonzero"/><path fill-rule="nonzero" d="M249.186 260.616l54.766 23.868 6.125-14.053-54.766-23.867"/><path d="M5.29 362.323c2.663-3.684 7.704-4.388 11.293-1.574 0 0 8.933 7.186 13.617 10.112 4.683 2.927 13.31 7.183 13.31 7.183a8.11 8.11 0 0 1 3.526 11.014l.38-.73a7.981 7.981 0 0 1-11.01 3.3s-12.66-6.94-17.157-9.864c-4.5-2.924-11.576-8.722-11.576-8.722-3.548-2.832-4.268-8.112-1.605-11.798l-.78 1.077zm74.89 34.949c.172-4.457 3.914-7.786 8.365-7.45 0 0 11.293.94 15.678.94 4.385 0 15.83-.67 15.83-.67a7.905 7.905 0 0 1 8.35 7.64l-.033-.893c.162 4.46-3.314 8.274-7.776 8.505 0 0-11.145.662-16.37.6-5.227-.06-16.267-.918-16.267-.918-4.447-.32-7.913-4.192-7.742-8.648l-.034.892zm77.4-6.088c-2.27-3.892-.773-8.535 3.333-10.383 0 0 7.75-3.4 10.72-5.04 2.97-1.64 11.38-6.834 11.38-6.834 3.843-2.354 8.56-.974 10.53 3.07l-.35-.715c1.974 4.05.467 9.256-3.362 11.61 0 0-6.328 3.97-9.632 5.743-3.304 1.773-11.533 5.458-11.533 5.458-4.098 1.866-9.263.22-11.53-3.667l.444.76z"/></g></svg>