<?xml version="1.0" encoding="UTF-8"?>
<svg width="1022px" height="631px" viewBox="0 0 1022 631" version="1.1" xmlns="http://www.w3.org/2000/svg" xmlns:xlink="http://www.w3.org/1999/xlink">
    <!-- Generator: Sketch 43.2 (39069) - http://www.bohemiancoding.com/sketch -->
    <title>logo</title>
    <desc>Created with Sketch.</desc>
    <defs></defs>
    <g id="Page-1" stroke="none" stroke-width="1" fill="none" fill-rule="evenodd">
        <g id="logo">
            <g id="logo-vector">
                <path d="M930.146779,545.184522 C926.730025,546.778496 922.976536,548.068276 918.886228,549.053892 C914.247482,550.171662 909.105817,550.730539 903.461078,550.730539 L902.958084,548.97006 C907.988049,546.73452 912.333315,544.205603 915.994012,541.383234 C919.654709,538.560864 922.672643,535.528958 925.047904,532.287425 C927.423166,529.045892 929.169655,525.650716 930.287425,522.101796 C931.405195,518.552876 931.964072,514.878263 931.964072,511.077844 C931.964072,506.327322 931.321364,502.317382 930.035928,499.047904 C928.750493,495.778427 926.990031,493.109791 924.754491,491.041916 C922.518951,488.974042 919.920174,487.479047 916.958084,486.556886 C913.995993,485.634726 910.810396,485.173653 907.401198,485.173653 C902.81834,485.173653 898.906204,486.011968 895.664671,487.688623 C892.423137,489.365278 889.642726,491.628728 887.323353,494.479042 C885.00398,497.329356 883.1038,500.682615 881.622754,504.538922 C880.141709,508.395229 878.912181,512.475028 877.934132,516.778443 C877.035797,520.731118 876.278921,524.80161 875.663485,528.990024 L875.125749,526.502994 C872.331323,530.303412 869.564884,533.71256 866.826347,536.730539 C865.652689,538.015974 864.409188,539.259475 863.095808,540.461078 C861.782429,541.662681 860.469068,542.738518 859.155689,543.688623 C857.842309,544.638727 856.542921,545.407183 855.257485,545.994012 C853.972049,546.580841 852.742521,546.874251 851.568862,546.874251 C850.003984,546.874251 848.984034,546.13374 848.508982,544.652695 C848.03393,543.171649 847.796407,541.117778 847.796407,538.491018 C847.796407,535.41715 848.075846,532.161694 848.634731,528.724551 C849.193616,525.287408 849.80838,521.850317 850.479042,518.413174 C851.149704,514.976031 851.764468,511.622771 852.323353,508.353293 C852.882238,505.083816 853.161677,502.107798 853.161677,499.42515 C853.161677,497.692606 853.007986,496.323358 852.700599,495.317365 C852.393212,494.311372 851.960083,493.528945 851.401198,492.97006 C850.842313,492.411175 850.199604,492.047905 849.473054,491.88024 C848.746503,491.712574 847.964076,491.628743 847.125749,491.628743 C846.510975,491.628743 845.882239,491.642714 845.239521,491.670659 C844.596803,491.698603 843.968067,491.712575 843.353293,491.712575 C842.626743,491.712575 841.914175,491.670659 841.215569,491.586826 C840.516963,491.502994 839.832339,491.321359 839.161677,491.041916 C838.491015,490.762474 837.932138,490.315372 837.48503,489.700599 C837.037922,489.085825 836.576849,488.457089 836.101796,487.814371 C835.626744,487.171653 835.025952,486.598805 834.299401,486.095808 C833.572851,485.592812 832.566873,485.341317 831.281437,485.341317 C827.42513,485.341317 823.638741,486.16566 819.922156,487.814371 C816.20557,489.463082 812.670675,491.684617 809.317365,494.479042 C805.964055,497.273467 802.876262,500.542895 800.053892,504.287425 C797.231523,508.031955 794.786437,512.013951 792.718563,516.233533 C790.650688,520.453115 789.029946,524.770437 787.856287,529.185629 C787.655674,529.940316 787.472207,530.691736 787.305885,531.439889 C786.485533,532.518045 785.663013,533.555047 784.838323,534.550898 C783.552888,536.115776 782.211584,537.638715 780.814371,539.11976 C779.417159,540.600806 778.005995,541.914166 776.580838,543.05988 C775.155681,544.205595 773.730546,545.127741 772.305389,545.826347 C770.880232,546.524954 769.524957,546.874251 768.239521,546.874251 C765.948092,546.874251 764.201603,546.13374 763,544.652695 C761.798397,543.171649 761.197605,540.782452 761.197605,537.48503 C761.197605,534.85827 761.518959,531.742533 762.161677,528.137725 C762.804394,524.532916 763.600794,520.606808 764.550898,516.359281 C765.501003,512.111755 766.520953,507.612798 767.610778,502.862275 C768.700604,498.111753 769.720554,493.263498 770.670659,488.317365 C771.620763,483.371233 772.417162,478.369287 773.05988,473.311377 C773.702598,468.253468 774.023952,463.321381 774.023952,458.51497 C774.023952,453.373228 773.548907,448.497029 772.598802,443.886228 C771.648698,439.275426 770.27945,435.251514 768.491018,431.814371 C766.702586,428.377228 764.481051,425.652705 761.826347,423.640719 C759.171643,421.628732 756.139738,420.622754 752.730539,420.622754 C747.812351,420.622754 743.061899,421.852283 738.479042,424.311377 C733.896185,426.770471 729.620778,430.305366 725.652695,434.916168 C721.684611,439.526969 718.1078,445.129708 714.922156,451.724551 C711.736511,458.319394 709.053903,465.752454 706.874251,474.023952 L705.113772,474.107784 C705.616769,470.195589 706.091814,466.562891 706.538922,463.209581 C706.706588,461.812368 706.888223,460.401205 707.083832,458.976048 C707.279442,457.550891 707.447105,456.223559 707.586826,454.994012 C707.726548,453.764465 707.838323,452.674655 707.922156,451.724551 C708.005988,450.774446 708.047904,450.075851 708.047904,449.628743 C708.047904,444.710554 707.614775,440.463092 706.748503,436.886228 C705.882231,433.309363 704.666674,430.347317 703.101796,428 C701.536918,425.652683 699.664682,423.920165 697.48503,422.802395 C695.305378,421.684625 692.930153,421.125749 690.359281,421.125749 C686.894194,421.125749 683.401215,422.075839 679.88024,423.976048 C676.359264,425.876257 672.880257,428.558865 669.443114,432.023952 C666.005971,435.489039 662.666683,439.638698 659.42515,444.473054 C656.183617,449.307409 653.123767,454.700569 650.245509,460.652695 C647.367251,466.60482 644.712587,473.003958 642.281437,479.850299 C639.850287,486.696641 637.740528,493.83629 635.952096,501.269461 C636.790423,497.245489 637.656682,492.914195 638.550898,488.275449 C639.445114,483.636703 640.269457,479.011999 641.023952,474.401198 C641.778447,469.790396 642.407183,465.389243 642.91018,461.197605 C643.413176,457.005967 643.664671,453.345325 643.664671,450.215569 C643.664671,446.135708 643.399204,442.419178 642.868263,439.065868 C642.337323,435.712558 641.401204,432.848315 640.05988,430.473054 C638.718556,428.097793 636.902207,426.2535 634.610778,424.94012 C632.31935,423.62674 629.441135,422.97006 625.976048,422.97006 C623.2934,422.97006 620.485045,423.528937 617.550898,424.646707 C614.616752,425.764477 611.738537,427.650685 608.916168,430.305389 C606.093798,432.960093 603.41119,436.50896 600.868263,440.952096 C598.325337,445.395232 596.047914,450.914139 594.035928,457.508982 C593.812374,457.732536 593.700599,458.011974 593.700599,458.347305 C593.700599,458.962079 593.78443,459.646703 593.952096,460.401198 C594.119761,461.155692 594.32934,461.86826 594.580838,462.538922 C594.832337,463.209584 595.111775,463.782433 595.419162,464.257485 C595.726548,464.732537 596.019959,464.97006 596.299401,464.97006 C597.193617,464.97006 598.003988,464.788425 598.730539,464.42515 C599.457089,464.061874 599.988022,463.461082 600.323353,462.622754 C602.111785,460.219549 604.067854,457.97007 606.191617,455.874251 C608.31538,453.778433 610.439111,451.948112 612.562874,450.383234 C614.686637,448.818355 616.712565,447.574855 618.640719,446.652695 C620.568872,445.730534 622.203586,445.269461 623.54491,445.269461 C624.383238,445.269461 625.011974,445.520956 625.431138,446.023952 C625.850301,446.526949 626.143712,447.127741 626.311377,447.826347 C626.479043,448.524954 626.562874,449.265465 626.562874,450.047904 L626.562874,451.976048 L625.305389,468.323353 C624.91417,473.409207 624.48104,478.341293 624.005988,483.11976 C623.530936,487.898227 622.986031,492.648679 622.371257,497.371257 C621.756484,502.093836 621.029944,506.970035 620.191617,512 C619.353289,517.029965 618.347311,522.353265 617.173653,527.97006 C615.999994,533.586854 614.630746,539.664638 613.065868,546.203593 C612.61876,548.15969 612.283434,550.101787 612.05988,552.02994 C611.836326,553.958093 611.724551,556.067853 611.724551,558.359281 C611.724551,559.53294 612.031933,560.580834 612.646707,561.502994 C613.26148,562.425154 614.099795,563.207582 615.161677,563.850299 C616.223558,564.493017 617.439115,564.968062 618.808383,565.275449 C620.177652,565.582836 621.588815,565.736527 623.041916,565.736527 C624.271463,565.736527 625.55688,565.61078 626.898204,565.359281 C628.239528,565.107783 629.497,564.674654 630.670659,564.05988 C631.844317,563.445107 632.850295,562.606792 633.688623,561.54491 C634.52695,560.483029 635.057883,559.113781 635.281437,557.437126 C636.007988,552.071829 637.097797,546.329372 638.550898,540.209581 C640.003999,534.08979 641.680629,527.830371 643.580838,521.431138 C645.481047,515.031904 647.562863,508.632767 649.826347,502.233533 C652.089832,495.834299 654.437114,489.700628 656.868263,483.832335 C659.299413,477.964043 661.744499,472.501023 664.203593,467.443114 C666.662687,462.385204 669.051885,457.984051 671.371257,454.239521 C673.69063,450.494991 675.856277,447.560889 677.868263,445.437126 C679.88025,443.313363 681.668655,442.251497 683.233533,442.251497 C685.133742,442.251497 686.656681,442.754486 687.802395,443.760479 C688.94811,444.766472 689.82834,446.219551 690.443114,448.11976 C691.057887,450.01997 691.449101,452.339308 691.616766,455.077844 C691.784432,457.816381 691.868263,460.918146 691.868263,464.383234 C691.868263,469.413199 691.532937,474.918134 690.862275,480.898204 C690.191613,486.878273 689.339327,492.928113 688.305389,499.047904 C687.271452,505.167695 686.153699,511.175619 684.952096,517.071856 C683.750493,522.968093 682.63274,528.389197 681.598802,533.335329 C680.564865,538.281462 679.712578,542.528924 679.041916,546.077844 C678.371254,549.626764 678.035928,552.127737 678.035928,553.580838 C678.035928,555.76049 678.301395,557.604783 678.832335,559.113772 C679.363276,560.622762 680.061872,561.866263 680.928144,562.844311 C681.794416,563.82236 682.800393,564.534928 683.946108,564.982036 C685.091822,565.429144 686.251491,565.652695 687.42515,565.652695 C688.766474,565.652695 690.107778,565.499004 691.449102,565.191617 C692.790426,564.88423 694.06187,564.395213 695.263473,563.724551 C696.465076,563.053889 697.526941,562.173658 698.449102,561.083832 C699.371262,559.994007 700.055886,558.666674 700.502994,557.101796 C701.508987,551.512946 702.598797,545.588854 703.772455,539.329341 C704.946114,533.069829 706.203586,526.726579 707.54491,520.299401 C708.886234,513.872223 710.339314,507.487058 711.904192,501.143713 C713.46907,494.800367 715.159672,488.736556 716.976048,482.952096 C718.792424,477.167636 720.720549,471.788448 722.760479,466.814371 C724.800409,461.840294 726.994,457.536944 729.341317,453.904192 C731.688634,450.271439 734.175636,447.421168 736.802395,445.353293 C739.429155,443.285419 742.223538,442.251497 745.185629,442.251497 C746.750507,442.251497 748.007979,442.642711 748.958084,443.42515 C749.908188,444.207589 750.634728,445.31137 751.137725,446.736527 C751.640721,448.161684 751.976047,449.894201 752.143713,451.934132 C752.311378,453.974062 752.39521,456.251484 752.39521,458.766467 C752.39521,462.902216 752.115771,467.219538 751.556886,471.718563 C750.998001,476.217587 750.299405,480.772432 749.461078,485.383234 C748.62275,489.994035 747.700604,494.618739 746.694611,499.257485 C745.688618,503.896231 744.724556,508.451075 743.802395,512.922156 C742.880235,517.393236 742.055892,521.738502 741.329341,525.958084 C740.602791,530.177666 740.127746,534.159662 739.904192,537.904192 C739.848303,538.407188 739.806387,538.910177 739.778443,539.413174 C739.750499,539.91617 739.736527,540.391215 739.736527,540.838323 C739.736527,544.862296 740.407179,548.425134 741.748503,551.526946 C743.089827,554.628758 744.878232,557.227534 747.113772,559.323353 C749.349313,561.419172 751.906173,562.997999 754.784431,564.05988 C757.662689,565.121762 760.610763,565.652695 763.628743,565.652695 C766.758499,565.652695 769.90218,565.177649 773.05988,564.227545 C776.217581,563.27744 779.333318,561.726558 782.407186,559.57485 C784.563958,558.06511 786.693193,556.245853 788.794922,554.11705 C789.824709,556.162322 791.076694,557.953634 792.550898,559.491018 C794.506996,561.530948 796.756474,563.095803 799.299401,564.185629 C801.842328,565.275455 804.455076,565.820359 807.137725,565.820359 C809.652707,565.820359 812.167652,565.401202 814.682635,564.562874 C817.197617,563.724547 819.614759,562.648709 821.934132,561.335329 C824.253505,560.02195 826.391208,558.554898 828.347305,556.934132 C830.303403,555.313365 831.952089,553.720567 833.293413,552.155689 C835.081845,556.682657 837.205577,560.133721 839.664671,562.508982 C842.123765,564.884243 845.197586,566.071856 848.886228,566.071856 C851.960095,566.071856 855.033917,565.317373 858.107784,563.808383 C859.878925,562.938914 861.585109,561.958125 863.226353,560.866006 C862.332438,562.472533 861.464573,564.068096 860.622754,565.652695 C859.001988,568.726562 857.423161,571.898187 855.886228,575.167665 C854.349294,578.437142 852.966074,581.650683 851.736527,584.808383 C850.50698,587.966084 849.528946,590.984018 848.802395,593.862275 C848.075845,596.740533 847.712575,599.325338 847.712575,601.616766 C847.712575,605.58485 847.978041,609.343296 848.508982,612.892216 C849.039923,616.441136 849.934125,619.542901 851.191617,622.197605 C852.449108,624.852309 854.13971,626.962068 856.263473,628.526946 C858.387236,630.091824 861.0419,630.874251 864.227545,630.874251 C868.195629,630.874251 872.023934,629.281453 875.712575,626.095808 C879.401216,622.910164 882.670644,618.383263 885.520958,612.51497 C888.371272,606.646677 890.648694,599.562916 892.353293,591.263473 C894.057893,582.96403 894.91018,573.728594 894.91018,563.556886 L894.91018,562.047904 C899.548925,562.718566 903.223539,563.291415 905.934132,563.766467 C908.644724,564.241519 910.72654,564.618761 912.179641,564.898204 C913.632742,565.177646 914.652692,565.373253 915.239521,565.48503 C915.82635,565.596807 916.315367,565.652695 916.706587,565.652695 C919.94812,565.652695 923.23152,565.191621 926.556886,564.269461 C929.882252,563.347301 933.053877,562.117772 936.071856,560.580838 C938.486398,559.351211 940.748876,557.96062 942.859334,556.409039 C943.042965,556.762646 943.239554,557.105342 943.449102,557.437126 C944.790426,559.560889 946.536915,561.279435 948.688623,562.592814 C950.84033,563.906194 953.341303,564.870256 956.191617,565.48503 C959.04193,566.099803 962.115752,566.407186 965.413174,566.407186 C969.996031,566.407186 974.844286,565.890225 979.958084,564.856287 C985.071882,563.82235 990.129716,562.411187 995.131737,560.622754 C1000.13376,558.834322 1004.91215,556.766479 1009.46707,554.419162 C1014.02198,552.071845 1018.03192,549.5569 1021.49701,546.874251 L1021.41317,528.095808 C1018.73053,530.107794 1016.06189,531.82634 1013.40719,533.251497 C1010.75248,534.676654 1008.16768,535.976042 1005.65269,537.149701 C1003.13771,538.323359 1000.72057,539.455084 998.401198,540.54491 C996.081825,541.634736 993.916178,542.850293 991.904192,544.191617 C991.904192,540.614753 991.778444,537.512987 991.526946,534.886228 C991.275448,532.259468 990.940122,529.94013 990.520958,527.928144 C990.101794,525.916158 989.668665,524.141724 989.221557,522.60479 C988.774449,521.067857 988.341319,519.614777 987.922156,518.245509 C987.502992,516.876241 987.167666,515.479049 986.916168,514.053892 C986.664669,512.628735 986.538922,511.049909 986.538922,509.317365 C986.706588,508.702592 987.363268,507.766473 988.508982,506.508982 C989.654696,505.251491 990.870253,503.868271 992.155689,502.359281 C993.441124,500.850292 994.614765,499.285437 995.676647,497.664671 C996.738528,496.043904 997.269461,494.562881 997.269461,493.221557 C997.269461,492.550895 997.213573,491.754496 997.101796,490.832335 C996.990019,489.910175 996.598806,489.029944 995.928144,488.191617 C995.257482,487.353289 994.195616,486.640721 992.742515,486.053892 C991.289414,485.467063 989.22157,485.173653 986.538922,485.173653 C984.918156,485.173653 983.451104,485.411175 982.137725,485.886228 C980.824345,486.36128 979.62276,486.976044 978.532934,487.730539 C977.443108,488.485034 976.451102,489.337321 975.556886,490.287425 C974.66267,491.23753 973.852299,492.215564 973.125749,493.221557 C969.548884,497.692637 966.642726,501.423139 964.407186,504.413174 C962.171646,507.403209 960.271465,509.932125 958.706587,512 C957.141709,514.067875 955.786433,515.85628 954.640719,517.365269 C953.495004,518.874259 952.22356,520.369254 950.826347,521.850299 C949.429135,523.331345 947.752505,524.966059 945.796407,526.754491 C943.84031,528.542923 941.297421,530.77843 938.167665,533.461078 C937.720557,533.852297 937.049905,534.38323 936.155689,535.053892 C935.261473,535.724554 934.36727,536.506982 933.473054,537.401198 C932.578838,538.295414 931.796411,539.315364 931.125749,540.461078 C930.455086,541.606792 930.11976,542.850293 930.11976,544.191617 C930.11976,544.541349 930.128767,544.872317 930.146779,545.184522 Z M492.589261,528.938936 C490.728631,530.635581 488.580128,532.40842 486.143713,534.257485 C483.013956,536.632746 479.68864,538.826337 476.167665,540.838323 C472.646689,542.850309 469.027963,544.526939 465.311377,545.868263 C461.594792,547.209588 458.059897,547.88024 454.706587,547.88024 C453.644705,547.88024 452.652699,547.768464 451.730539,547.54491 C450.808379,547.321356 449.928148,546.930143 449.08982,546.371257 C448.251493,545.812372 447.42715,545.029945 446.616766,544.023952 C445.806383,543.017959 444.98204,541.760487 444.143713,540.251497 C449.006012,538.910173 453.518941,537.037936 457.682635,534.634731 C461.846328,532.231525 465.437111,529.493029 468.45509,526.419162 C471.473069,523.345294 473.834323,520.075866 475.538922,516.610778 C477.243521,513.145691 478.095808,509.680656 478.095808,506.215569 C478.095808,503.029924 477.536932,500.151709 476.419162,497.580838 C475.301392,495.009967 473.750509,492.816376 471.766467,491 C469.782425,489.183624 467.449115,487.77246 464.766467,486.766467 C462.083819,485.760474 459.17766,485.257485 456.047904,485.257485 C452.191597,485.257485 448.684647,485.942109 445.526946,487.311377 C442.369246,488.680646 439.518975,490.524939 436.976048,492.844311 C434.433121,495.163684 432.211586,497.846292 430.311377,500.892216 C428.411168,503.938139 426.832342,507.137708 425.57485,510.491018 C424.317359,513.844328 423.381241,517.267448 422.766467,520.760479 C422.151694,524.25351 421.844311,527.564855 421.844311,530.694611 C421.844311,531.859792 421.885744,533.011746 421.968609,534.150474 C420.471534,535.329083 419.004955,536.440599 417.568862,537.48503 C416.227538,538.435134 414.844319,539.371253 413.419162,540.293413 C411.994005,541.215573 410.582841,542.039917 409.185629,542.766467 C407.788416,543.493018 406.461084,544.065866 405.203593,544.48503 C403.946101,544.904194 402.786432,545.113772 401.724551,545.113772 C400.606781,545.113772 399.670662,544.778446 398.916168,544.107784 C398.161673,543.437122 397.56088,542.528948 397.113772,541.383234 C396.666664,540.237519 396.34531,538.938131 396.149701,537.48503 C395.954091,536.031929 395.856287,534.495018 395.856287,532.874251 C395.856287,531.588816 395.940119,530.261484 396.107784,528.892216 C396.27545,527.522947 396.485029,526.181643 396.736527,524.868263 C396.988025,523.554884 397.253492,522.339327 397.532934,521.221557 C397.812377,520.103787 398.091815,519.153697 398.371257,518.371257 C401.27746,511.329306 404.26745,504.538955 407.341317,498 C410.415185,491.461045 413.265456,484.866301 415.892216,478.215569 C418.518975,471.564837 420.810369,464.73257 422.766467,457.718563 C424.722565,450.704556 426.063869,443.257524 426.790419,435.377246 C426.958085,433.309371 427.041916,431.297415 427.041916,429.341317 C427.041916,426.155673 426.790422,423.067879 426.287425,420.077844 C425.784429,417.087809 424.960086,414.461089 423.814371,412.197605 C422.668657,409.93412 421.173662,408.117771 419.329341,406.748503 C417.485021,405.379235 415.249514,404.694611 412.622754,404.694611 C409.04589,404.694611 405.580855,405.798392 402.227545,408.005988 C398.874235,410.213584 395.716582,413.273434 392.754491,417.185629 C389.7924,421.097824 387.067877,425.7365 384.580838,431.101796 C382.0938,436.467093 379.928153,442.307354 378.083832,448.622754 C376.239512,454.938155 374.758489,461.588787 373.640719,468.57485 C372.522949,475.560913 371.88024,482.630703 371.712575,489.784431 C367.465049,490.175651 363.469081,491.153685 359.724551,492.718563 C355.980021,494.283441 352.514986,496.253481 349.329341,498.628743 C346.143697,501.004004 343.293426,503.714556 340.778443,506.760479 C338.26346,509.806402 336.125757,513.047887 334.365269,516.48503 C332.604782,519.922173 331.263478,523.47104 330.341317,527.131737 C329.419157,530.792433 328.958084,534.41116 328.958084,537.988024 C328.958084,539.201127 329.009498,540.400955 329.112328,541.587513 C327.905418,542.548475 326.722277,543.40253 325.562874,544.149701 C324.305383,544.960084 323.131742,545.616764 322.041916,546.11976 C320.95209,546.622757 319.988028,546.874251 319.149701,546.874251 C317.30538,546.874251 315.950104,545.756498 315.083832,543.520958 C314.217561,541.285418 313.784431,538.435147 313.784431,534.97006 C313.784431,532.902185 313.910178,530.638735 314.161677,528.179641 C314.413175,525.720547 314.734529,523.233546 315.125749,520.718563 C315.516968,518.20358 315.950097,515.744523 316.42515,513.341317 C316.900202,510.938112 317.333331,508.730549 317.724551,506.718563 C318.11577,504.706577 318.437124,502.974059 318.688623,501.520958 C318.940121,500.067857 319.065868,499.033935 319.065868,498.419162 C319.065868,494.283412 318.241525,491.041928 316.592814,488.694611 C314.944104,486.347294 312.722569,485.173653 309.928144,485.173653 C307.133719,485.173653 304.59083,485.732529 302.299401,486.850299 C300.007973,487.968069 297.968073,490.035913 296.179641,493.053892 C295.788421,493.724554 295.201601,494.758476 294.419162,496.155689 C293.636723,497.552901 292.770464,499.159672 291.820359,500.976048 C290.870255,502.792424 289.850305,504.692605 288.760479,506.676647 C287.670653,508.660689 286.650703,510.546897 285.700599,512.335329 C284.750494,514.123761 283.912179,515.702588 283.185629,517.071856 C282.459078,518.441125 281.928145,519.433131 281.592814,520.047904 L279.916168,520.047904 C279.916168,519.656685 279.999999,518.888229 280.167665,517.742515 C280.33533,516.596801 280.544909,515.255497 280.796407,513.718563 C281.047905,512.181629 281.313372,510.504999 281.592814,508.688623 C281.872257,506.872246 282.137723,505.111785 282.389222,503.407186 C282.64072,501.702586 282.850299,500.137732 283.017964,498.712575 C283.18563,497.287418 283.269461,496.155693 283.269461,495.317365 C283.269461,492.243498 282.682641,489.78444 281.508982,487.94012 C280.335323,486.095799 278.239536,485.173653 275.221557,485.173653 C272.203578,485.173653 269.81438,486.039911 268.053892,487.772455 C266.293404,489.504999 265.105791,491.656674 264.491018,494.227545 C263.708579,497.524967 262.898208,501.492991 262.05988,506.131737 C261.221553,510.770482 260.467069,515.590793 259.796407,520.592814 C259.239834,524.743926 258.760248,528.83725 258.357641,532.872871 C257.239838,534.222874 256.126615,535.508761 255.017964,536.730539 C253.844306,538.015974 252.600805,539.259475 251.287425,540.461078 C249.974045,541.662681 248.660685,542.738518 247.347305,543.688623 C246.033926,544.638727 244.734537,545.407183 243.449102,545.994012 C242.163666,546.580841 240.934138,546.874251 239.760479,546.874251 C238.195601,546.874251 237.175651,546.13374 236.700599,544.652695 C236.225547,543.171649 235.988024,541.117778 235.988024,538.491018 C235.988024,535.41715 236.267462,532.161694 236.826347,528.724551 C237.385232,525.287408 237.999997,521.850317 238.670659,518.413174 C239.341321,514.976031 239.956085,511.622771 240.51497,508.353293 C241.073855,505.083816 241.353293,502.107798 241.353293,499.42515 C241.353293,497.692606 241.199602,496.323358 240.892216,495.317365 C240.584829,494.311372 240.151699,493.528945 239.592814,492.97006 C239.033929,492.411175 238.391221,492.047905 237.664671,491.88024 C236.93812,491.712574 236.155693,491.628743 235.317365,491.628743 C234.702592,491.628743 234.073856,491.642714 233.431138,491.670659 C232.78842,491.698603 232.159684,491.712575 231.54491,491.712575 C230.81836,491.712575 230.105792,491.670659 229.407186,491.586826 C228.708579,491.502994 228.023955,491.321359 227.353293,491.041916 C226.682631,490.762474 226.123755,490.315372 225.676647,489.700599 C225.229539,489.085825 224.768465,488.457089 224.293413,487.814371 C223.818361,487.171653 223.217569,486.598805 222.491018,486.095808 C221.764467,485.592812 220.758489,485.341317 219.473054,485.341317 C215.616747,485.341317 211.830358,486.16566 208.113772,487.814371 C204.397187,489.463082 200.862292,491.684617 197.508982,494.479042 C194.155672,497.273467 191.067878,500.542895 188.245509,504.287425 C185.42314,508.031955 182.978054,512.013951 180.91018,516.233533 C178.842305,520.453115 177.221563,524.770437 176.047904,529.185629 C175.385341,531.678128 174.909798,534.134985 174.621273,536.556221 C174.524191,536.601316 174.426881,536.64545 174.329341,536.688623 C172.624742,537.443118 170.962084,537.820359 169.341317,537.820359 C167.720551,537.820359 166.197612,537.596809 164.772455,537.149701 C163.347298,536.702593 162.11777,535.976053 161.083832,534.97006 C160.049895,533.964067 159.225552,532.692622 158.610778,531.155689 C157.996005,529.618755 157.688623,527.76049 157.688623,525.580838 C157.688623,524.686622 158.037921,522.590835 158.736527,519.293413 C159.435133,515.995991 160.301392,511.944136 161.335329,507.137725 C162.369267,502.331313 163.48702,496.938154 164.688623,490.958084 C165.890226,484.978014 167.007979,478.830371 168.041916,472.51497 C169.075853,466.199569 169.942112,459.898235 170.640719,453.610778 C171.339325,447.323322 171.688623,441.469089 171.688623,436.047904 C171.688623,434.091807 171.465072,432.485036 171.017964,431.227545 C170.570856,429.970054 169.928148,428.964076 169.08982,428.209581 C168.251493,427.455086 167.259487,426.924153 166.113772,426.616766 C164.968058,426.30938 163.696614,426.155689 162.299401,426.155689 C160.510969,426.155689 158.76448,426.30938 157.05988,426.616766 C155.355281,426.924153 153.832342,427.552889 152.491018,428.502994 C151.149694,429.453099 150.045913,430.794403 149.179641,432.526946 C148.313369,434.25949 147.796408,436.550884 147.628743,439.401198 C147.461077,442.139734 147.167667,445.926124 146.748503,450.760479 C146.329339,455.594835 145.756491,461.043882 145.02994,467.107784 C144.30339,473.171687 143.395215,479.61274 142.305389,486.431138 C141.215563,493.249535 139.930147,500.011943 138.449102,506.718563 C136.968056,513.425183 135.263483,519.852265 133.335329,526 C131.407176,532.147735 129.227557,537.554867 126.796407,542.221557 C124.365257,546.888247 121.682649,550.618749 118.748503,553.413174 C115.814357,556.207599 112.5589,557.60479 108.982036,557.60479 C106.914161,557.60479 105.181644,556.850307 103.784431,555.341317 C102.387219,553.832328 101.255493,551.652709 100.389222,548.802395 C99.5229498,545.952082 98.9081854,542.501018 98.5449102,538.449102 C98.1816349,534.397185 98,529.856313 98,524.826347 C98,519.908159 98.2235507,514.514999 98.6706587,508.646707 C99.1177667,502.778414 99.6906153,496.840349 100.389222,490.832335 C101.087828,484.824321 101.842311,478.970088 102.652695,473.269461 C103.463078,467.568834 104.217561,462.469084 104.916168,457.97006 C105.614774,453.471035 106.187623,449.78245 106.634731,446.904192 C107.081839,444.025934 107.305389,442.39122 107.305389,442 C107.305389,440.826341 107.137726,439.764476 106.802395,438.814371 C106.467064,437.864267 105.894216,437.053896 105.083832,436.383234 C104.273449,435.712571 103.18364,435.181639 101.814371,434.790419 C100.445103,434.3992 98.6986134,434.203593 96.5748503,434.203593 C94.3393102,434.203593 92.36927,434.455087 90.6646707,434.958084 C88.9600713,435.46108 87.4650763,436.327339 86.1796407,437.556886 C84.8942051,438.786433 83.7904238,440.435119 82.8682635,442.502994 C81.9461032,444.570869 81.149704,447.141701 80.4790419,450.215569 C76.8462892,469.273548 72.6826582,486.291342 67.988024,501.269461 C66.6466999,505.516987 65.2215644,509.722534 63.7125749,513.886228 C62.2035853,518.049921 60.5968149,522.017945 58.8922156,525.790419 C57.1876162,529.562893 55.4131829,533.069844 53.5688623,536.311377 C51.7245417,539.55291 49.7964172,542.347294 47.7844311,544.694611 C45.772445,547.041928 43.6906295,548.886221 41.5389222,550.227545 C39.3872148,551.568869 37.1656801,552.239521 34.8742515,552.239521 C32.5828229,552.239521 30.5988108,551.512981 28.9221557,550.05988 C27.2455006,548.606779 25.848309,546.608795 24.7305389,544.065868 C23.6127689,541.522941 22.7884258,538.532951 22.257485,535.095808 C21.7265443,531.658665 21.4610778,527.956108 21.4610778,523.988024 C21.4610778,519.125724 21.9221511,513.858312 22.8443114,508.185629 C23.7664717,502.512946 24.9261407,496.742544 26.3233533,490.874251 C27.7205659,485.005959 29.2295328,479.221585 30.8502994,473.520958 C32.471066,467.820331 33.9800329,462.538946 35.3772455,457.676647 C36.7744581,452.814347 37.9341271,448.524969 38.8562874,444.808383 C39.7784477,441.091798 40.239521,438.283443 40.239521,436.383234 C40.239521,434.706578 40.057886,433.379246 39.6946108,432.401198 C39.3313355,431.423149 38.8004027,430.668665 38.1017964,430.137725 C37.4031901,429.606784 36.5509032,429.257486 35.5449102,429.08982 C34.5389171,428.922155 33.4211638,428.838323 32.1916168,428.838323 C30.6826272,428.838323 29.1876322,428.922155 27.7065868,429.08982 C26.2255415,429.257486 24.7584903,429.774447 23.3053892,430.640719 C21.8522881,431.50699 20.4271527,432.848294 19.0299401,434.664671 C17.6327275,436.481047 16.2355359,439.009964 14.8383234,442.251497 C12.4910062,448.063901 10.3952188,454.043881 8.5508982,460.191617 C6.7065776,466.339352 5.15569491,472.542883 3.89820359,478.802395 C2.64071228,485.061908 1.67665006,491.307354 1.00598802,497.538922 C0.335325988,503.77049 0,509.848274 0,515.772455 C0,525.441166 0.768455389,533.894175 2.30538922,541.131737 C3.84232305,548.369298 5.88222281,554.391194 8.4251497,559.197605 C10.9680766,564.004016 13.9161509,567.622742 17.2694611,570.053892 C20.6227713,572.485042 24.1436941,573.700599 27.8323353,573.700599 C34.2595132,573.700599 40.113746,572.596817 45.3952096,570.389222 C50.6766731,568.181626 55.3712369,564.479068 59.4790419,559.281437 C63.5868469,554.083806 67.1636574,547.195652 70.2095808,538.616766 C73.2555043,530.037881 75.7844211,519.377309 77.7964072,506.634731 C77.6287417,508.479051 77.405191,510.574839 77.1257485,512.922156 C76.846306,515.269473 76.7065868,517.784418 76.7065868,520.467066 C76.7065868,527.78846 77.2375196,534.690586 78.2994012,541.173653 C79.3612828,547.656719 81.0518846,553.301373 83.3712575,558.107784 C85.6906304,562.914196 88.7085643,566.714557 92.4251497,569.508982 C96.1417351,572.303407 100.654664,573.700599 105.964072,573.700599 C110.15571,573.700599 114.221537,572.9042 118.161677,571.311377 C122.101816,569.718555 125.874233,567.455104 129.479042,564.520958 C133.08385,561.586812 136.492998,558.037945 139.706587,553.874251 C142.920176,549.710558 145.924138,545.029966 148.718563,539.832335 C149.053894,542.514983 149.640714,544.834322 150.479042,546.790419 C151.317369,548.746517 152.365263,550.339315 153.622754,551.568862 C154.880246,552.798409 156.319353,553.706584 157.94012,554.293413 C159.560886,554.880242 161.293404,555.173653 163.137725,555.173653 C166.994031,555.173653 171.115747,553.804405 175.502994,551.065868 C175.553748,551.034187 175.604485,551.002372 175.655206,550.970422 C175.777856,551.328897 175.908756,551.682069 176.047904,552.02994 C177.221563,554.964087 178.786417,557.451088 180.742515,559.491018 C182.698613,561.530948 184.948091,563.095803 187.491018,564.185629 C190.033945,565.275455 192.646693,565.820359 195.329341,565.820359 C197.844324,565.820359 200.359269,565.401202 202.874251,564.562874 C205.389234,563.724547 207.806376,562.648709 210.125749,561.335329 C212.445121,560.02195 214.582825,558.554898 216.538922,556.934132 C218.49502,555.313365 220.143706,553.720567 221.48503,552.155689 C223.273462,556.682657 225.397193,560.133721 227.856287,562.508982 C230.315382,564.884243 233.389203,566.071856 237.077844,566.071856 C240.151712,566.071856 243.225534,565.317373 246.299401,563.808383 C249.373269,562.299394 252.251484,560.455101 254.934132,558.275449 C255.987913,557.419252 257.000726,556.545813 257.972574,555.655127 C258.251975,557.34068 258.706224,558.870797 259.335329,560.245509 C260.089824,561.89422 261.165662,563.20758 262.562874,564.185629 C263.960087,565.163678 265.80438,565.652695 268.095808,565.652695 C269.940129,565.652695 271.560871,565.233537 272.958084,564.39521 C274.355296,563.556882 275.612769,561.992027 276.730539,559.700599 L298.694611,516.107784 L300.035928,516.107784 C299.365266,520.578865 298.806389,524.756468 298.359281,528.640719 C297.912173,532.52497 297.688623,536.143696 297.688623,539.497006 C297.688623,548.047947 298.736516,554.544888 300.832335,558.988024 C302.928154,563.43116 305.512959,565.652695 308.586826,565.652695 C311.660694,565.652695 314.594796,565.219565 317.389222,564.353293 C320.183647,563.487022 322.866255,562.369268 325.437126,561 C328.007997,559.630732 330.481026,558.079849 332.856287,556.347305 C333.057675,556.200411 333.258761,556.053516 333.459546,555.906622 C333.696153,556.298394 333.942172,556.682813 334.197605,557.05988 C335.958093,559.658696 338.165655,561.740511 340.820359,563.305389 C343.475063,564.870267 346.618744,565.652695 350.251497,565.652695 C352.822368,565.652695 355.379229,565.247509 357.922156,564.437126 C360.465083,563.626742 362.980027,562.550905 365.467066,561.209581 C367.954104,559.868257 370.357274,558.28943 372.676647,556.473054 C374.99602,554.656678 377.18961,552.742525 379.257485,550.730539 C380.598809,553.972072 382.177636,556.570849 383.994012,558.526946 C385.810388,560.483044 387.626737,561.978039 389.443114,563.011976 C391.25949,564.045913 392.93612,564.730537 394.473054,565.065868 C396.009988,565.401199 397.169657,565.568862 397.952096,565.568862 C399.349308,565.568862 400.872247,565.33134 402.520958,564.856287 C404.169669,564.381235 405.860271,563.766471 407.592814,563.011976 C409.325358,562.257481 411.085819,561.391222 412.874251,560.413174 C414.662684,559.435125 416.367257,558.443119 417.988024,557.437126 C420.96693,555.580706 423.979151,553.524212 427.024741,551.267606 C427.830646,552.627668 428.730581,553.91571 429.724551,555.131737 C432.351311,558.345325 435.634711,560.902186 439.57485,562.802395 C443.51499,564.702604 448.11175,565.652695 453.365269,565.652695 C456.71858,565.652695 460.029924,565.275453 463.299401,564.520958 C466.568879,563.766463 469.726532,562.760485 472.772455,561.502994 C475.818379,560.245503 478.724537,558.806395 481.491018,557.185629 C484.257499,555.564862 486.842303,553.916176 489.245509,552.239521 C489.858392,551.806169 490.467503,551.365618 491.072841,550.917867 C491.134145,552.178246 491.237608,553.4152 491.383234,554.628743 C491.634732,556.724561 492.137721,558.596798 492.892216,560.245509 C493.64671,561.89422 494.722548,563.20758 496.11976,564.185629 C497.516973,565.163678 499.361266,565.652695 501.652695,565.652695 C502.658688,565.652695 503.580834,565.47106 504.419162,565.107784 C505.257489,564.744509 506.039917,564.115773 506.766467,563.221557 C507.493018,562.327341 508.205585,561.167672 508.904192,559.742515 C509.602798,558.317358 510.343309,556.514981 511.125749,554.335329 L526.131737,512.502994 L527.473054,512.502994 C527.920162,516.02397 528.506982,519.502977 529.233533,522.94012 C529.960083,526.377263 531.077837,529.479028 532.586826,532.245509 C534.095816,535.01199 536.135716,537.247496 538.706587,538.952096 C541.277458,540.656695 544.658662,541.508982 548.850299,541.508982 C551.197617,541.508982 553.502983,541.159684 555.766467,540.461078 C558.029951,539.762472 560.20957,538.896213 562.305389,537.862275 C564.401208,536.828338 566.371248,535.724557 568.215569,534.550898 C570.059889,533.37724 571.708576,532.315374 573.161677,531.365269 L574.419162,511.748503 C571.904179,513.816378 569.333346,515.660671 566.706587,517.281437 C564.471047,518.67865 562.011989,519.936122 559.329341,521.053892 C556.646693,522.171662 554.047917,522.730539 551.532934,522.730539 C550.638718,522.730539 549.786431,522.562876 548.976048,522.227545 C548.165665,521.892214 547.439125,521.319365 546.796407,520.508982 C546.153689,519.698599 545.636729,518.622761 545.245509,517.281437 C544.854289,515.940113 544.658683,514.263483 544.658683,512.251497 C544.658683,511.077838 544.798402,509.610787 545.077844,507.850299 C545.357287,506.089812 545.664669,504.273462 546,502.401198 C546.335331,500.528933 546.642713,498.740527 546.922156,497.035928 C547.201598,495.331329 547.341317,494.003997 547.341317,493.053892 C547.341317,491.824345 547.117767,490.720564 546.670659,489.742515 C546.223551,488.764466 545.622758,487.940123 544.868263,487.269461 C544.113769,486.598799 543.233538,486.081838 542.227545,485.718563 C541.221552,485.355288 540.18763,485.173653 539.125749,485.173653 C536.051881,485.173653 533.341329,485.997996 530.994012,487.646707 C528.646695,489.295417 526.550907,491.321345 524.706587,493.724551 C522.862266,496.127757 521.241524,498.712561 519.844311,501.479042 C518.447099,504.245523 517.189626,506.746496 516.071856,508.982036 L515.149701,508.982036 C515.037924,506.131722 514.982036,503.239536 514.982036,500.305389 L514.982036,492.802395 C514.982036,491.069852 514.94012,489.700604 514.856287,488.694611 C514.772455,487.688618 514.534932,486.920162 514.143713,486.389222 C513.752493,485.858281 513.151701,485.522955 512.341317,485.383234 C511.530934,485.243512 510.399209,485.173653 508.946108,485.173653 C507.660672,485.173653 506.584835,485.243512 505.718563,485.383234 C504.852291,485.522955 504.125751,485.802393 503.538922,486.221557 C502.952093,486.640721 502.435132,487.213569 501.988024,487.94012 C501.540916,488.66667 501.093815,489.644704 500.646707,490.874251 C499.920156,492.718572 499.193616,495.065854 498.467066,497.916168 C497.740515,500.766481 497.013976,503.896191 496.287425,507.305389 C495.560875,510.714588 494.876251,514.30537 494.233533,518.077844 C493.605357,521.764962 493.057272,525.385291 492.589261,528.938936 Z M195.748503,538.491018 C195.748503,539.888231 195.846306,541.243506 196.041916,542.556886 C196.237526,543.870266 196.586824,545.043907 197.08982,546.077844 C197.592817,547.111782 198.263469,547.950097 199.101796,548.592814 C199.940124,549.235532 201.00199,549.556886 202.287425,549.556886 C204.3553,549.556886 206.227537,548.662684 207.904192,546.874251 C209.580847,545.085819 211.033926,542.934144 212.263473,540.419162 C213.49302,537.904179 214.485026,535.305403 215.239521,532.622754 C215.994016,529.940106 216.483033,527.7046 216.706587,525.916168 L221.820359,501.269461 C219.528931,501.269461 217.293424,501.84231 215.113772,502.988024 C212.934121,504.133738 210.880249,505.684621 208.952096,507.640719 C207.023942,509.596816 205.249509,511.832323 203.628743,514.347305 C202.007976,516.862288 200.610784,519.50298 199.437126,522.269461 C198.263467,525.035942 197.355293,527.816353 196.712575,530.610778 C196.069857,533.405204 195.748503,536.031924 195.748503,538.491018 Z M372.047904,502.275449 C368.359263,504.063881 365.075863,506.425135 362.197605,509.359281 C359.319347,512.293428 356.916177,515.465053 354.988024,518.874251 C353.059871,522.28345 351.592819,525.720542 350.586826,529.185629 C349.580833,532.650716 349.077844,535.780425 349.077844,538.57485 C349.077844,539.69262 349.203592,540.810374 349.45509,541.928144 C349.706588,543.045914 350.167661,544.051892 350.838323,544.946108 C351.508985,545.840324 352.459076,546.566863 353.688623,547.125749 C354.91817,547.684634 356.510968,547.964072 358.467066,547.964072 C359.473059,547.964072 360.465065,547.712577 361.443114,547.209581 C362.421163,546.706584 363.357281,546.049904 364.251497,545.239521 C365.145713,544.429138 365.998,543.506991 366.808383,542.473054 C367.618767,541.439117 368.359278,540.363279 369.02994,539.245509 C370.594818,536.674638 372.019954,533.768479 373.305389,530.526946 C373.137724,529.744507 372.998005,528.501007 372.886228,526.796407 C372.774451,525.091808 372.690619,523.191627 372.634731,521.095808 C372.578842,518.99999 372.522954,516.834343 372.467066,514.598802 C372.411177,512.363262 372.369262,510.323363 372.341317,508.479042 C372.313373,506.634721 372.271457,505.125754 372.215569,503.952096 C372.15968,502.778437 372.103793,502.219561 372.047904,502.275449 Z M411.449102,441.497006 C411.784433,437.584811 411.952096,434.483045 411.952096,432.191617 C411.952096,429.173638 411.686629,427.07785 411.155689,425.904192 C410.624748,424.730533 409.856292,424.143713 408.850299,424.143713 C407.061867,424.143713 405.441125,425.275438 403.988024,427.538922 C402.534923,429.802407 401.249507,432.694593 400.131737,436.215569 C399.013966,439.736545 398.035932,443.620737 397.197605,447.868263 C396.359277,452.11579 395.660681,456.223533 395.101796,460.191617 C394.542911,464.1597 394.09581,467.736511 393.760479,470.922156 C393.425148,474.1078 393.201597,476.371251 393.08982,477.712575 C392.866266,480.451111 392.684631,483.091804 392.54491,485.634731 C392.405189,488.177657 392.307386,490.496996 392.251497,492.592814 C392.195609,494.688633 392.167665,496.518954 392.167665,498.083832 L392.167665,502.526946 C395.353309,495.261441 398.287412,488.023988 400.97006,480.814371 C402.08783,477.740504 403.219555,474.512991 404.365269,471.131737 C405.510984,467.750482 406.558877,464.355306 407.508982,460.946108 C408.459087,457.536909 409.28343,454.183649 409.982036,450.886228 C410.680642,447.588806 411.169659,444.459097 411.449102,441.497006 Z M442.215569,526.251497 C444.227555,526.251497 446.421146,525.734536 448.796407,524.700599 C451.171669,523.666661 453.379231,522.339329 455.419162,520.718563 C457.459092,519.097796 459.177638,517.337335 460.57485,515.437126 C461.972063,513.536917 462.670659,511.692624 462.670659,509.904192 C462.670659,507.389209 462.209585,505.321365 461.287425,503.700599 C460.365265,502.079832 459.23354,501.269461 457.892216,501.269461 C455.48901,501.269461 453.435138,501.716562 451.730539,502.610778 C450.02594,503.504994 448.600804,504.664664 447.45509,506.08982 C446.309376,507.514977 445.387229,509.135719 444.688623,510.952096 C443.990016,512.768472 443.459084,514.598793 443.095808,516.443114 C442.732533,518.287434 442.495011,520.07584 442.383234,521.808383 C442.271457,523.540927 442.215569,525.02195 442.215569,526.251497 Z M807.556886,538.491018 C807.556886,539.888231 807.65469,541.243506 807.850299,542.556886 C808.045909,543.870266 808.395207,545.043907 808.898204,546.077844 C809.4012,547.111782 810.071852,547.950097 810.91018,548.592814 C811.748507,549.235532 812.810373,549.556886 814.095808,549.556886 C816.163683,549.556886 818.03592,548.662684 819.712575,546.874251 C821.38923,545.085819 822.842309,542.934144 824.071856,540.419162 C825.301403,537.904179 826.293409,535.305403 827.047904,532.622754 C827.802399,529.940106 828.291416,527.7046 828.51497,525.916168 L833.628743,501.269461 C831.337314,501.269461 829.101807,501.84231 826.922156,502.988024 C824.742504,504.133738 822.688632,505.684621 820.760479,507.640719 C818.832326,509.596816 817.057892,511.832323 815.437126,514.347305 C813.816359,516.862288 812.419168,519.50298 811.245509,522.269461 C810.07185,525.035942 809.163676,527.816353 808.520958,530.610778 C807.87824,533.405204 807.556886,536.031924 807.556886,538.491018 Z M863.724551,602.622754 C863.724551,603.069863 863.822354,603.796402 864.017964,604.802395 C864.213574,605.808388 864.534928,606.814366 864.982036,607.820359 C865.429144,608.826352 866.015964,609.720555 866.742515,610.502994 C867.469066,611.285433 868.363268,611.676647 869.42515,611.676647 C870.375254,611.676647 871.157682,611.159686 871.772455,610.125749 C872.387229,609.091811 872.890218,607.708591 873.281437,605.976048 C873.672657,604.243504 873.952095,602.287436 874.11976,600.107784 C874.287426,597.928133 874.427145,595.692626 874.538922,593.401198 C874.650699,591.109769 874.720559,588.874262 874.748503,586.694611 C874.776447,584.514959 874.846307,582.558891 874.958084,580.826347 C875.125749,577.808368 875.251497,575.251507 875.335329,573.155689 L875.54491,567.916168 C875.600799,566.35129 875.656686,565.037929 875.712575,563.976048 C874.650693,565.820369 873.616771,567.958072 872.610778,570.389222 C871.604785,572.820371 870.654695,575.349288 869.760479,577.976048 C868.866263,580.602808 868.055892,583.229528 867.329341,585.856287 C866.602791,588.483047 865.974055,590.928132 865.443114,593.191617 C864.912173,595.455101 864.493016,597.411169 864.185629,599.05988 C863.878242,600.708591 863.724551,601.896204 863.724551,602.622754 Z M892.898204,542.263473 C896.251514,540.586818 899.1437,538.714581 901.57485,536.646707 C904.006,534.578832 906.101788,532.371269 907.862275,530.023952 C909.622763,527.676635 911.061871,525.245522 912.179641,522.730539 C913.297411,520.215556 914.191613,517.644724 914.862275,515.017964 C915.141718,513.788417 915.323353,512.34931 915.407186,510.700599 C915.491018,509.051888 915.323355,507.501005 914.904192,506.047904 C914.485028,504.594803 913.758488,503.351303 912.724551,502.317365 C911.690614,501.283428 910.251506,500.766467 908.407186,500.766467 C906.339311,500.766467 904.522962,501.339316 902.958084,502.48503 C901.393206,503.630744 900.03793,505.181627 898.892216,507.137725 C897.746501,509.093822 896.796411,511.41316 896.041916,514.095808 C895.287421,516.778457 894.672657,519.656671 894.197605,522.730539 C893.722553,525.804407 893.387227,529.003975 893.191617,532.329341 C892.996007,535.654707 892.898204,538.966051 892.898204,542.263473 Z M948.898204,544.191617 C949.568866,544.191617 950.309377,544.610774 951.11976,545.449102 C951.930144,546.287429 952.866262,547.209576 953.928144,548.215569 C954.990025,549.221562 956.219554,550.143708 957.616766,550.982036 C959.013979,551.820363 960.606777,552.239521 962.39521,552.239521 C964.574861,552.239521 966.377238,551.876251 967.802395,551.149701 C969.227552,550.42315 970.359277,549.459088 971.197605,548.257485 C972.035932,547.055882 972.622753,545.658691 972.958084,544.065868 C973.293415,542.473046 973.461078,540.810388 973.461078,539.077844 C973.461078,537.568855 973.363274,536.031944 973.167665,534.467066 C972.972055,532.902188 972.72056,531.407193 972.413174,529.982036 C972.105787,528.556879 971.770461,527.215575 971.407186,525.958084 C971.04391,524.700593 970.722556,523.624755 970.443114,522.730539 L948.898204,544.191617 Z" id="Wander-Maps" fill="#114D89"></path>
                <g id="icon" transform="translate(271.796407, 0.000000)" fill="#378EE6">
                    <path d="M426.869629,1.17046629 L427.379519,0.668692964 L427.741007,0.975877805 C434.732217,-0.307778073 440.668887,5.28429301 439.305227,13.4281904 L390.772218,303.271561 C389.400169,311.465556 381.266829,315.936818 373.602323,312.793055 L299.487584,282.393284 L254.423009,353.212029 C249.192383,361.43193 238.727742,360.271208 235.359672,351.127537 L194.660096,240.635926 L99.3504094,207.392465 C89.9410984,204.110553 88.9841876,193.383232 97.6322495,188.450678 L423.636336,2.50929944 C424.717929,1.89239654 425.802852,1.45107498 426.869629,1.17046629 Z M264.528504,257.405214 L256.520235,321.362513 L293.43965,263.343845 L376.229082,297.301729 L419.658095,37.9398685 L264.528504,257.405214 Z M114.539057,196.455128 L198.623752,225.783377 L385.435169,41.9454191 L114.539057,196.455128 Z M240.985131,322.049836 L249.794873,251.691644 L376.949429,71.8032152 L209.503698,236.58373 L240.985131,322.049836 Z" id="Polygon" fill-rule="nonzero"></path>
                    <polygon id="Line" fill-rule="nonzero" points="249.186429 260.615695 303.952142 284.483823 310.076638 270.431092 255.310925 246.562964"></polygon>
                    <path d="M1.06586826,375.324617 C1.3709607,370.790177 5.27348628,367.522333 9.80810761,368.006448 C9.80810761,368.006448 21.1922491,369.367536 26.7147684,369.367536 C32.2372876,369.367536 41.8074277,368.405718 41.8074277,368.405718 C46.333028,368.00159 50.2853838,371.347698 50.6350948,375.877302 L50.5716679,375.055769 C50.9214535,379.586339 47.5326006,383.456417 42.9832964,383.690233 C42.9832964,383.690233 28.5697476,384.514149 23.2061686,384.417718 C17.8425896,384.321287 8.76821997,383.154608 8.76821997,383.154608 C4.25848109,382.63276 0.849777846,378.536263 1.15503412,373.999388 L1.06586826,375.324617 Z" id="Rectangle" transform="translate(25.850482, 376.191579) rotate(32.000000) translate(-25.850482, -376.191579) "></path>
                    <path d="M80.1811632,397.271598 C80.3521338,392.815182 84.0937799,389.485742 88.5454512,389.823118 C88.5454512,389.823118 99.8378533,390.761383 104.222718,390.761383 C108.607582,390.761383 120.053694,390.092433 120.053694,390.092433 C124.502552,389.850993 128.240382,393.271839 128.402349,397.73248 L128.369898,396.838753 C128.531875,401.299674 125.055584,405.113522 120.593608,405.345289 C120.593608,405.345289 109.448647,406.006683 104.222718,405.945867 C98.996789,405.885051 87.9565285,405.026977 87.9565285,405.026977 C83.5102598,404.707122 80.0444566,400.834909 80.2154164,396.378774 L80.1811632,397.271598 Z" id="Rectangle"></path>
                    <path d="M155.291348,381.957269 C155.035255,377.459387 158.478338,374.002116 162.975847,374.220012 C162.975847,374.220012 171.423361,374.708192 174.814484,374.594657 C178.205607,374.481123 188.05957,373.672714 188.05957,373.672714 C192.550842,373.319502 196.126527,376.690151 196.046326,381.187771 L196.060504,380.392679 C195.980196,384.896343 192.273428,388.850715 187.792546,389.21068 C187.792546,389.21068 180.352037,389.874159 176.603257,389.953885 C172.854476,390.033611 163.849272,389.580793 163.849272,389.580793 C159.351287,389.382396 155.497042,385.56998 155.241253,381.077428 L155.291348,381.957269 Z" id="Rectangle" transform="translate(175.650659, 381.806373) rotate(-27.000000) translate(-175.650659, -381.806373) "></path>
                </g>
            </g>
        </g>
    </g>
</svg>