<?xml version="1.0" encoding="UTF-8"?>
<svg width="440px" height="406px" viewBox="0 0 440 406" version="1.1" xmlns="http://www.w3.org/2000/svg" xmlns:xlink="http://www.w3.org/1999/xlink">
    <!-- Generator: Sketch 43.2 (39069) - http://www.bohemiancoding.com/sketch -->
    <title>logo-icon</title>
    <desc>Created with Sketch.</desc>
    <defs></defs>
    <g id="Page-1" stroke="none" stroke-width="1" fill="none" fill-rule="evenodd">
        <g id="logo-icon" fill="#378EE6">
            <g id="icon">
                <path d="M426.869629,1.17046629 L427.379519,0.668692964 L427.741007,0.975877805 C434.732217,-0.307778073 440.668887,5.28429301 439.305227,13.4281904 L390.772218,303.271561 C389.400169,311.465556 381.266829,315.936818 373.602323,312.793055 L299.487584,282.393284 L254.423009,353.212029 C249.192383,361.43193 238.727742,360.271208 235.359672,351.127537 L194.660096,240.635926 L99.3504094,207.392465 C89.9410984,204.110553 88.9841876,193.383232 97.6322495,188.450678 L423.636336,2.50929944 C424.717929,1.89239654 425.802852,1.45107498 426.869629,1.17046629 Z M264.528504,257.405214 L256.520235,321.362513 L293.43965,263.343845 L376.229082,297.301729 L419.658095,37.9398685 L264.528504,257.405214 Z M114.539057,196.455128 L198.623752,225.783377 L385.435169,41.9454191 L114.539057,196.455128 Z M240.985131,322.049836 L249.794873,251.691644 L376.949429,71.8032152 L209.503698,236.58373 L240.985131,322.049836 Z" id="Polygon" fill-rule="nonzero"></path>
                <polygon id="Line" fill-rule="nonzero" points="249.186429 260.615695 303.952142 284.483823 310.076638 270.431092 255.310925 246.562964"></polygon>
                <path d="M1.06586826,375.324617 C1.3709607,370.790177 5.27348628,367.522333 9.80810761,368.006448 C9.80810761,368.006448 21.1922491,369.367536 26.7147684,369.367536 C32.2372876,369.367536 41.8074277,368.405718 41.8074277,368.405718 C46.333028,368.00159 50.2853838,371.347698 50.6350948,375.877302 L50.5716679,375.055769 C50.9214535,379.586339 47.5326006,383.456417 42.9832964,383.690233 C42.9832964,383.690233 28.5697476,384.514149 23.2061686,384.417718 C17.8425896,384.321287 8.76821997,383.154608 8.76821997,383.154608 C4.25848109,382.63276 0.849777846,378.536263 1.15503412,373.999388 L1.06586826,375.324617 Z" id="Rectangle" transform="translate(25.850482, 376.191579) rotate(32.000000) translate(-25.850482, -376.191579) "></path>
                <path d="M80.1811632,397.271598 C80.3521338,392.815182 84.0937799,389.485742 88.5454512,389.823118 C88.5454512,389.823118 99.8378533,390.761383 104.222718,390.761383 C108.607582,390.761383 120.053694,390.092433 120.053694,390.092433 C124.502552,389.850993 128.240382,393.271839 128.402349,397.73248 L128.369898,396.838753 C128.531875,401.299674 125.055584,405.113522 120.593608,405.345289 C120.593608,405.345289 109.448647,406.006683 104.222718,405.945867 C98.996789,405.885051 87.9565285,405.026977 87.9565285,405.026977 C83.5102598,404.707122 80.0444566,400.834909 80.2154164,396.378774 L80.1811632,397.271598 Z" id="Rectangle"></path>
                <path d="M155.291348,381.957269 C155.035255,377.459387 158.478338,374.002116 162.975847,374.220012 C162.975847,374.220012 171.423361,374.708192 174.814484,374.594657 C178.205607,374.481123 188.05957,373.672714 188.05957,373.672714 C192.550842,373.319502 196.126527,376.690151 196.046326,381.187771 L196.060504,380.392679 C195.980196,384.896343 192.273428,388.850715 187.792546,389.21068 C187.792546,389.21068 180.352037,389.874159 176.603257,389.953885 C172.854476,390.033611 163.849272,389.580793 163.849272,389.580793 C159.351287,389.382396 155.497042,385.56998 155.241253,381.077428 L155.291348,381.957269 Z" id="Rectangle" transform="translate(175.650659, 381.806373) rotate(-27.000000) translate(-175.650659, -381.806373) "></path>
            </g>
        </g>
    </g>
</svg>