<?xml version="1.0" encoding="UTF-8"?>
<svg width="1024px" height="227px" viewBox="0 0 1024 227" version="1.1" xmlns="http://www.w3.org/2000/svg" xmlns:xlink="http://www.w3.org/1999/xlink">
    <!-- Generator: Sketch 43.2 (39069) - http://www.bohemiancoding.com/sketch -->
    <title>logo-text</title>
    <desc>Created with Sketch.</desc>
    <defs></defs>
    <g id="Page-1" stroke="none" stroke-width="1" fill="none" fill-rule="evenodd">
        <g id="logo-text" fill="#114D89">
            <path d="M932.425936,140.834157 C929.000809,142.432036 925.238124,143.724976 921.137792,144.713008 C916.48768,145.833517 911.333416,146.393763 905.674846,146.393763 L905.17062,144.62897 C910.21291,142.387952 914.568823,139.852839 918.23849,137.023554 C921.908157,134.194268 924.933486,131.154933 927.314567,127.905458 C929.695649,124.655982 931.446418,121.252487 932.566927,117.694871 C933.687436,114.137255 934.247682,110.453637 934.247682,106.643906 C934.247682,101.881743 933.603399,97.8619778 932.314813,94.5844891 C931.026228,91.3070004 929.261453,88.6318254 927.020435,86.5588839 C924.779417,84.4859423 922.174273,82.9872841 919.204924,82.0628642 C916.235575,81.1384443 913.042173,80.6762413 909.62462,80.6762413 C905.030534,80.6762413 901.108811,81.5166104 897.859335,83.1973738 C894.609859,84.8781373 891.822635,87.1471338 889.497579,90.0044317 C887.172523,92.8617295 885.267686,96.2232059 883.783012,100.088962 C882.298338,103.954718 881.065796,108.044514 880.085351,112.358474 C879.184814,116.320834 878.426084,120.4013 877.80914,124.599977 L877.270086,122.106853 C874.468814,125.916583 871.695596,129.334084 868.950349,132.359458 C867.773814,133.648044 866.527267,134.894591 865.210669,136.099138 C863.894071,137.303685 862.577493,138.382159 861.260895,139.334592 C859.944297,140.287024 858.641724,141.057363 857.353139,141.64563 C856.064554,142.233897 854.832012,142.528026 853.655478,142.528026 C852.086766,142.528026 851.064316,141.7857 850.5881,140.301026 C850.111884,138.816351 849.873779,136.757447 849.873779,134.124251 C849.873779,131.042852 850.153902,127.779418 850.714157,124.333853 C851.274411,120.888288 851.890682,117.442775 852.562987,113.99721 C853.235293,110.551645 853.851563,107.190168 854.411818,103.91268 C854.972072,100.635191 855.252195,97.6518805 855.252195,94.962659 C855.252195,93.2258701 855.098128,91.8532672 854.789988,90.8448092 C854.481848,89.8363511 854.047657,89.0520066 853.487403,88.4917522 C852.927148,87.9314977 852.282865,87.5673377 851.554534,87.3992614 C850.826203,87.231185 850.041859,87.1471481 849.201477,87.1471481 C848.585197,87.1471481 847.95492,87.1611543 847.310628,87.189167 C846.666335,87.2171797 846.036058,87.2311859 845.419778,87.2311859 C844.691448,87.2311859 843.977134,87.1891674 843.276816,87.1051293 C842.576498,87.0210911 841.890196,86.8390111 841.217891,86.5588839 C840.545585,86.2787566 839.985339,85.8305598 839.537136,85.2142799 C839.088932,84.5979999 838.626729,83.9677231 838.150513,83.3234304 C837.674297,82.6791378 837.072032,82.1048856 836.343701,81.6006565 C835.61537,81.0964275 834.606928,80.8443168 833.318342,80.8443168 C829.452586,80.8443168 825.656919,81.6706797 821.931227,83.3234304 C818.205535,84.9761812 814.661978,87.2031593 811.300451,90.0044317 C807.938925,92.8057041 804.843565,96.0831436 802.01428,99.8368486 C799.184995,103.590554 796.733918,107.582307 794.660977,111.812228 C792.588035,116.042149 790.963321,120.37005 789.786787,124.796061 C789.585682,125.552597 789.401765,126.305858 789.235036,127.055844 C788.412673,128.136642 787.588138,129.176185 786.761428,130.174477 C785.472843,131.743189 784.128252,133.26986 782.727616,134.754534 C781.32698,136.239209 779.912358,137.555787 778.483709,138.704309 C777.055061,139.85283 775.626433,140.777236 774.197784,141.477554 C772.769135,142.177872 771.410539,142.528026 770.121953,142.528026 C767.82491,142.528026 766.074141,141.7857 764.869594,140.301026 C763.665047,138.816351 763.062782,136.4213 763.062782,133.115798 C763.062782,130.482602 763.384924,127.35923 764.029216,123.745589 C764.673509,120.131947 765.47186,116.196219 766.424292,111.938285 C767.376725,107.680351 768.399174,103.17037 769.49167,98.4082068 C770.584166,93.6460438 771.606615,88.7859091 772.559048,83.827657 C773.511481,78.8694048 774.309831,73.8552025 774.954124,68.7848995 C775.598417,63.7145965 775.920558,58.7704249 775.920558,53.9522364 C775.920558,48.7978952 775.444349,43.9097482 774.491916,39.2876487 C773.539484,34.6655493 772.166881,30.6317776 770.374066,27.1862126 C768.581252,23.7406475 766.354274,21.0094479 763.693065,18.9925318 C761.031856,16.9756157 757.992522,15.9671728 754.574969,15.9671728 C749.64473,15.9671728 744.882638,17.1997141 740.288551,19.6648338 C735.694465,22.1299535 731.408582,25.6735099 727.430776,30.2956094 C723.452969,34.9177088 719.867394,40.5341757 716.673943,47.1451785 C713.480493,53.7561813 710.791312,61.2074541 708.606319,69.4992204 L706.841526,69.5832581 C707.345755,65.6614768 707.821965,62.0198773 708.270168,58.6583504 C708.438245,57.2577142 708.620325,55.8430929 708.816414,54.414444 C709.012503,52.9857951 709.180577,51.6552106 709.32064,50.4226508 C709.460704,49.190091 709.572753,48.0976111 709.656791,47.1451785 C709.740829,46.1927459 709.782848,45.4924383 709.782848,45.0442347 C709.782848,40.1139953 709.348657,35.8561252 708.480263,32.2704965 C707.611868,28.6848679 706.393333,25.7155637 704.82462,23.3624949 C703.255908,21.0094261 701.379084,19.2726632 699.194091,18.1521543 C697.009099,17.0316453 694.628053,16.4713993 692.050882,16.4713993 C688.577304,16.4713993 685.075767,17.4238176 681.546163,19.3286828 C678.01656,21.233548 674.529028,23.9227292 671.083463,27.3963069 C667.637898,30.8698847 664.290428,35.0297118 661.040952,39.875913 C657.791476,44.7221142 654.724129,50.1284888 651.838818,56.095199 C648.953508,62.0619092 646.292339,68.4767267 643.855232,75.3398441 C641.418125,82.2029614 639.303196,89.360105 637.510382,96.8114895 C638.350763,92.7776573 639.219145,88.4357502 640.115552,83.7856381 C641.011959,79.1355259 641.838322,74.4994897 642.594666,69.8773902 C643.351009,65.2552908 643.981286,60.843353 644.485515,56.6414444 C644.989744,52.4395358 645.241855,48.769924 645.241855,45.632499 C645.241855,41.5426413 644.975738,37.8170049 644.443496,34.455478 C643.911254,31.0939512 642.972842,28.2226901 641.628231,25.8416085 C640.283621,23.460527 638.462821,21.611715 636.165778,20.2951169 C633.868734,18.9785189 630.983467,18.3202298 627.509889,18.3202298 C624.820668,18.3202298 622.005431,18.8804759 619.064095,20.0009848 C616.122759,21.1214938 613.237492,23.0123243 610.408207,25.673533 C607.578922,28.3347418 604.889741,31.8923044 602.340583,36.3463275 C599.791425,40.8003505 597.508422,46.3327805 595.491506,52.9437833 C595.267404,53.1678851 595.155355,53.4480082 595.155355,53.7841609 C595.155355,54.4004408 595.239392,55.0867422 595.407468,55.8430858 C595.575545,56.5994293 595.785637,57.313743 596.037751,57.9860484 C596.289866,58.6583538 596.569989,59.232606 596.878129,59.7088223 C597.186269,60.1850386 597.480398,60.4231432 597.760525,60.4231432 C598.656932,60.4231432 599.469289,60.2410632 600.19762,59.8768978 C600.925951,59.5127324 601.458185,58.9104679 601.794337,58.0700862 C603.587152,55.6609919 605.548013,53.4060015 607.67698,51.3050472 C609.805947,49.2040929 611.934882,47.369287 614.063849,45.8005745 C616.192816,44.2318619 618.223708,42.9853144 620.156586,42.0608945 C622.089464,41.1364747 623.728184,40.6742716 625.072794,40.6742716 C625.913176,40.6742716 626.543453,40.9263824 626.963644,41.4306114 C627.383835,41.9348404 627.677964,42.537105 627.84604,43.2374231 C628.014117,43.9377412 628.098153,44.6800672 628.098153,45.4644235 L628.098153,47.3972918 L626.837587,63.7846533 C626.445409,68.882969 626.011218,73.8271406 625.535002,78.6173164 C625.058786,83.4074921 624.512546,88.1695838 623.896266,92.9037341 C623.279986,97.6378844 622.551666,102.526031 621.711284,107.568322 C620.870903,112.610612 619.86246,117.946956 618.685925,123.577513 C617.509391,129.208071 616.136788,135.300747 614.568076,141.855724 C614.119872,143.816615 613.783724,145.76347 613.559622,147.696348 C613.335521,149.629226 613.223471,151.744155 613.223471,154.041198 C613.223471,155.217733 613.531607,156.268194 614.147887,157.192614 C614.764167,158.117034 615.604536,158.901378 616.669019,159.545671 C617.733503,160.189964 618.952038,160.666173 620.324661,160.974313 C621.697285,161.282453 623.111906,161.43652 624.568568,161.43652 C625.801128,161.43652 627.089694,161.310465 628.434304,161.05835 C629.778915,160.806236 631.039469,160.372045 632.216003,159.755765 C633.392538,159.139485 634.400981,158.299116 635.241362,157.234633 C636.081744,156.170149 636.613978,154.797546 636.83808,153.116783 C637.56641,147.73834 638.65889,141.981812 640.115552,135.847025 C641.572214,129.712239 643.252952,123.437482 645.157817,117.022569 C647.062682,110.607655 649.149599,104.192837 651.418629,97.7779237 C653.68766,91.3630099 656.040694,85.2143093 658.477801,79.3316373 C660.914908,73.4489653 663.365984,67.9725599 665.831104,62.9022569 C668.296224,57.8319539 670.691275,53.420016 673.016332,49.666311 C675.341388,45.912606 677.512341,42.9713142 679.529257,40.8423471 C681.546173,38.7133801 683.338961,37.6489126 684.907673,37.6489126 C686.812539,37.6489126 688.339209,38.1531341 689.487731,39.1615921 C690.636252,40.1700502 691.51864,41.62669 692.13492,43.5315552 C692.7512,45.4364204 693.143372,47.7614416 693.311449,50.5066886 C693.479525,53.2519355 693.563562,56.3613012 693.563562,59.8348789 C693.563562,64.8771692 693.227414,70.3955931 692.555109,76.390316 C691.882803,82.3850389 691.028428,88.4497026 689.991957,94.5844891 C688.955487,100.719276 687.834994,106.741921 686.630447,112.652606 C685.4259,118.56329 684.305408,123.997677 683.268937,128.955929 C682.232466,133.914182 681.378091,138.172052 680.705786,141.729668 C680.03348,145.287284 679.697333,147.794385 679.697333,149.251046 C679.697333,151.436039 679.96345,153.284851 680.495691,154.797538 C681.027933,156.310225 681.728241,157.556773 682.596635,158.537218 C683.46503,159.517663 684.473473,160.231977 685.621994,160.680181 C686.770516,161.128384 687.933027,161.352483 689.109561,161.352483 C690.454172,161.352483 691.798762,161.198415 693.143373,160.890275 C694.487984,160.582135 695.762544,160.09192 696.967091,159.419614 C698.171638,158.747309 699.236105,157.864921 700.160525,156.772425 C701.084945,155.679929 701.771247,154.349344 702.21945,152.780632 C703.227908,147.178087 704.320388,141.239479 705.496922,134.964629 C706.673457,128.689779 707.934011,122.330986 709.278621,115.888059 C710.623232,109.445133 712.079872,103.044321 713.648584,96.6854329 C715.217297,90.3265446 716.912041,84.2478747 718.732868,78.4492409 C720.553695,72.650607 722.486544,67.2582386 724.531473,62.2719737 C726.576402,57.2857089 728.775368,52.9718141 731.128437,49.33016 C733.481505,45.6885059 735.9746,42.831251 738.607796,40.7583094 C741.240993,38.6853678 744.042223,37.6489126 747.011572,37.6489126 C748.580284,37.6489126 749.840838,38.0410848 750.79327,38.8254411 C751.745703,39.6097974 752.474023,40.7162834 752.978252,42.1449323 C753.482481,43.5735812 753.818629,45.310344 753.986705,47.3552729 C754.154781,49.4002017 754.238818,51.6832045 754.238818,54.2043496 C754.238818,58.3502327 753.958695,62.6781337 753.398441,67.1881822 C752.838186,71.6982307 752.137879,76.2642362 751.297497,80.8863357 C750.457115,85.5084351 749.532709,90.1444713 748.524251,94.7945835 C747.515793,99.4446957 746.549369,104.010701 745.624949,108.492737 C744.700529,112.974773 743.874166,117.330686 743.145835,121.560607 C742.417504,125.790529 741.941295,129.782282 741.717193,133.535987 C741.661168,134.040216 741.619149,134.544437 741.591137,135.048666 C741.563124,135.552895 741.549118,136.029105 741.549118,136.477308 C741.549118,140.51114 742.221413,144.082709 743.566024,147.192121 C744.910635,150.301534 746.703422,152.906678 748.94444,155.007632 C751.185458,157.108587 753.748584,158.691282 756.633894,159.755765 C759.519205,160.820249 762.474503,161.352483 765.499877,161.352483 C768.637302,161.352483 771.788686,160.876273 774.954124,159.923841 C778.119562,158.971408 781.242934,157.416725 784.324333,155.259746 C786.48639,153.746306 788.620842,151.922591 790.727722,149.788572 C791.760032,151.838855 793.015085,153.634557 794.492901,155.175708 C796.453792,157.220637 798.708782,158.789326 801.25794,159.881822 C803.807098,160.974318 806.426248,161.520558 809.11547,161.520558 C811.636615,161.520558 814.157722,161.100374 816.678867,160.259992 C819.200013,159.41961 821.623077,158.341136 823.948133,157.024538 C826.273189,155.70794 828.41613,154.237294 830.377021,152.612556 C832.337912,150.987818 833.990638,149.391117 835.335248,147.822405 C837.128063,152.360466 839.256998,155.819985 841.722117,158.201067 C844.187237,160.582148 847.26859,161.772671 850.96627,161.772671 C854.04767,161.772671 857.129023,161.016339 860.210423,159.503652 C861.985903,158.632053 863.696268,157.64886 865.341533,156.554065 C864.445428,158.164529 863.575436,159.764001 862.731555,161.352483 C861.106817,164.433882 859.524122,167.613279 857.983422,170.890767 C856.442722,174.168256 855.056113,177.389671 853.823554,180.555109 C852.590994,183.720547 851.610563,186.745875 850.882232,189.631186 C850.153901,192.516496 849.789741,195.107635 849.789741,197.404678 C849.789741,201.382485 850.055858,205.15014 850.5881,208.707755 C851.120342,212.265371 852.016736,215.374737 853.277308,218.035946 C854.537881,220.697155 856.232625,222.812084 858.361592,224.380796 C860.490559,225.949509 863.151728,226.733853 866.345178,226.733853 C870.322985,226.733853 874.160671,225.137152 877.85835,221.943701 C881.55603,218.750251 884.83347,214.212258 887.690767,208.329586 C890.548065,202.446914 892.831068,195.345795 894.539844,187.026016 C896.24862,178.706237 897.102995,169.44817 897.102995,159.251539 L897.102995,157.738859 C901.753108,158.411165 905.436726,158.985417 908.15396,159.461633 C910.871194,159.937849 912.958111,160.316016 914.414772,160.596143 C915.871434,160.87627 916.893883,161.072356 917.48215,161.184407 C918.070417,161.296458 918.560633,161.352483 918.952811,161.352483 C922.202287,161.352483 925.493732,160.89028 928.827247,159.96586 C932.160761,159.04144 935.340157,157.808898 938.365531,156.268199 C940.785989,155.035558 943.054011,153.64156 945.16964,152.086177 C945.353721,152.440651 945.550792,152.784186 945.760854,153.116783 C947.105464,155.24575 948.856233,156.968507 951.013213,158.285105 C953.170193,159.601703 955.677294,160.568127 958.534592,161.184407 C961.39189,161.800687 964.473243,162.108822 967.778744,162.108822 C972.372831,162.108822 977.232966,161.590595 982.359294,160.554124 C987.485623,159.517653 992.55585,158.103032 997.570127,156.310217 C1002.5844,154.517403 1007.37451,152.444493 1011.94058,150.091424 C1016.50666,147.738355 1020.52642,145.217248 1024,142.528026 L1023.91596,123.70357 C1021.22674,125.720486 1018.55157,127.443243 1015.89036,128.871892 C1013.22915,130.300541 1010.63801,131.603113 1008.11686,132.779647 C1005.59572,133.956182 1003.17266,135.09068 1000.8476,136.183176 C998.522543,137.275672 996.35159,138.494207 994.334674,139.838818 C994.334674,136.25319 994.208618,133.143824 993.956504,130.510628 C993.704389,127.877432 993.368242,125.552411 992.948051,123.535494 C992.52786,121.518578 992.093669,119.739797 991.645466,118.199097 C991.197262,116.658397 990.763071,115.201758 990.342881,113.829134 C989.92269,112.456511 989.586542,111.055896 989.334428,109.627247 C989.082313,108.198598 988.956258,106.615903 988.956258,104.879114 C989.124334,104.262834 989.782623,103.324422 990.931145,102.063849 C992.079667,100.803276 993.298202,99.4166674 994.586787,97.9039803 C995.875372,96.3912932 997.051889,94.8226042 998.116373,93.1978662 C999.180856,91.5731282 999.71309,90.0884762 999.71309,88.7438654 C999.71309,88.07156 999.657065,87.2732094 999.545014,86.3487895 C999.432963,85.4243696 999.040791,84.541982 998.368486,83.7016003 C997.69618,82.8612186 996.631713,82.1469049 995.175051,81.5586377 C993.71839,80.9703705 991.645479,80.6762413 988.956258,80.6762413 C987.33152,80.6762413 985.860874,80.9143459 984.544276,81.3905622 C983.227678,81.8667785 982.023149,82.4830492 980.930652,83.2393927 C979.838156,83.9957362 978.843719,84.8501115 977.947312,85.8025441 C977.050905,86.7549767 976.238548,87.7354074 975.510217,88.7438654 C971.924589,93.2259012 969.011309,96.9655438 966.770291,99.9629052 C964.529273,102.960267 962.624437,105.49538 961.055724,107.568322 C959.487012,109.641263 958.128415,111.434051 956.979893,112.946738 C955.831372,114.459425 954.556812,115.958083 953.156176,117.442757 C951.755539,118.927432 950.074801,120.566152 948.113911,122.358966 C946.15302,124.15178 943.6039,126.392765 940.466475,129.081986 C940.018272,129.474164 939.345976,130.006398 938.449569,130.678703 C937.553162,131.351009 936.656768,132.135353 935.760361,133.03176 C934.863954,133.928168 934.079609,134.950617 933.407304,136.099138 C932.734999,137.24766 932.398851,138.494207 932.398851,139.838818 C932.398851,140.189407 932.407879,140.521187 932.425936,140.834157 Z M493.796262,124.548763 C491.931073,126.249565 489.777305,128.026749 487.33492,129.880345 C484.197495,132.261426 480.864031,134.460392 477.334428,136.477308 C473.804824,138.494224 470.177231,140.174963 466.451539,141.519573 C462.725847,142.864184 459.18229,143.536479 455.820763,143.536479 C454.75628,143.536479 453.761843,143.42443 452.837423,143.200328 C451.913003,142.976226 451.030616,142.584054 450.190234,142.0238 C449.349852,141.463545 448.523489,140.679201 447.71112,139.670743 C446.898751,138.662285 446.072388,137.401731 445.232007,135.889044 C450.106221,134.544433 454.630208,132.667609 458.804103,130.258515 C462.977999,127.84942 466.57758,125.104215 469.602954,122.022815 C472.628329,118.941415 474.995368,115.663976 476.704144,112.190398 C478.412921,108.71682 479.267296,105.243295 479.267296,101.769717 C479.267296,98.5762663 478.70705,95.6909991 477.586541,93.1138285 C476.466032,90.5366579 474.911349,88.337692 472.922446,86.516865 C470.933542,84.6960379 468.594515,83.2814166 465.905293,82.2729586 C463.216072,81.2645005 460.302792,80.760279 457.165367,80.760279 C453.299611,80.760279 449.784067,81.4465805 446.618629,82.8192039 C443.453192,84.1918274 440.595937,86.0406394 438.046779,88.3656955 C435.497621,90.6907516 433.270643,93.3799328 431.365778,96.4333197 C429.460912,99.4867066 427.878217,102.694115 426.617645,106.055642 C425.357072,109.417169 424.41866,112.848676 423.80238,116.350267 C423.1861,119.851857 422.877965,123.171315 422.877965,126.30874 C422.877965,127.476777 422.919499,128.631553 423.002567,129.773072 C421.501823,130.954569 420.031651,132.068808 418.592039,133.115798 C417.247429,134.068231 415.86082,135.006643 414.432171,135.931063 C413.003522,136.855483 411.5889,137.681846 410.188264,138.410176 C408.787628,139.138507 407.457044,139.712759 406.196471,140.13295 C404.935898,140.553141 403.773388,140.763233 402.708904,140.763233 C401.588395,140.763233 400.649983,140.427086 399.89364,139.75478 C399.137296,139.082475 398.535032,138.172075 398.086828,137.023554 C397.638624,135.875032 397.316483,134.57246 397.120394,133.115798 C396.924305,131.659136 396.826262,130.11846 396.826262,128.493722 C396.826262,127.205136 396.910299,125.874552 397.078375,124.501929 C397.246451,123.129305 397.456544,121.784715 397.708658,120.468117 C397.960773,119.151519 398.22689,117.932983 398.507017,116.812474 C398.787144,115.691965 399.067267,114.739547 399.347394,113.955191 C402.260718,106.895984 405.258034,100.088995 408.339434,93.5340172 C411.420833,86.9790399 414.278088,80.3681362 416.911284,73.7011079 C419.54448,67.0340796 421.841489,60.1850714 423.80238,53.1538777 C425.763271,46.122684 427.107861,38.6574051 427.836192,30.757817 C428.004268,28.6848754 428.088305,26.6679896 428.088305,24.7070989 C428.088305,21.5136484 427.836195,18.4182888 427.331966,15.4209274 C426.827737,12.4235659 426.001374,9.79040938 424.852852,7.52137874 C423.70433,5.25234811 422.205672,3.43154838 420.356832,2.05892491 C418.507992,0.686301439 416.267008,0 413.633812,0 C410.048183,0 406.574658,1.10648599 403.213131,3.31949118 C399.851604,5.53249636 396.686214,8.59984361 393.716865,12.5216249 C390.747516,16.4434063 388.016317,21.0934487 385.523184,26.4718917 C383.030052,31.8503346 380.859098,37.7049061 379.010259,44.0357817 C377.161419,50.3666573 375.676767,57.0335856 374.556258,64.0367665 C373.435749,71.0399475 372.791466,78.1270603 372.623389,85.2983176 C368.365455,85.6904957 364.359696,86.6709264 360.605991,88.2396389 C356.852286,89.8083514 353.37876,91.7832188 350.18531,94.1643004 C346.991859,96.5453819 344.134604,99.2625754 341.613459,102.315962 C339.092314,105.369349 336.949373,108.618776 335.184571,112.064341 C333.41977,115.509906 332.075179,119.067469 331.150759,122.737136 C330.226339,126.406803 329.764136,130.034396 329.764136,133.620025 C329.764136,134.8361 329.815677,136.038868 329.918759,137.228333 C328.708891,138.19165 327.522851,139.047798 326.360607,139.796799 C325.100035,140.609168 323.923518,141.267457 322.831022,141.771686 C321.738526,142.275916 320.772101,142.528026 319.931719,142.528026 C318.08288,142.528026 316.724283,141.407534 315.855888,139.166516 C314.987494,136.925498 314.553303,134.068243 314.553303,130.594666 C314.553303,128.521724 314.679359,126.252727 314.931473,123.787608 C315.183588,121.322488 315.505729,118.829393 315.897907,116.308248 C316.290085,113.787103 316.724276,111.32202 317.200492,108.912926 C317.676709,106.503831 318.110899,104.290859 318.503078,102.273943 C318.895256,100.257027 319.217397,98.5202644 319.469512,97.0636028 C319.721626,95.6069412 319.847682,94.5704859 319.847682,93.954206 C319.847682,89.8083229 319.021319,86.5588956 317.368568,84.2058268 C315.715817,81.852758 313.488839,80.6762413 310.687567,80.6762413 C307.886294,80.6762413 305.337175,81.2364874 303.040131,82.3569963 C300.743088,83.4775053 298.69819,85.5504157 296.905375,88.5757899 C296.513197,89.2480953 295.924939,90.2845505 295.140583,91.6851867 C294.356226,93.0858229 293.487845,94.6965304 292.535412,96.5173574 C291.58298,98.3381845 290.560531,100.243021 289.468034,102.231924 C288.375538,104.220828 287.353089,106.111658 286.400657,107.904473 C285.448224,109.697287 284.607855,111.279982 283.879524,112.652606 C283.151193,114.025229 282.618959,115.019666 282.282807,115.635946 L280.602052,115.635946 C280.602052,115.243768 280.686089,114.473429 280.854165,113.324908 C281.022241,112.176386 281.232334,110.831795 281.484448,109.291096 C281.736563,107.750396 282.002679,106.069658 282.282807,104.248831 C282.562934,102.428003 282.829051,100.663228 283.081165,98.9544522 C283.33328,97.245676 283.543372,95.676987 283.711449,94.2483381 C283.879525,92.8196892 283.963562,91.6851909 283.963562,90.8448092 C283.963562,87.7634096 283.375303,85.2983268 282.198769,83.4494871 C281.022235,81.6006473 278.921312,80.6762413 275.895938,80.6762413 C272.870563,80.6762413 270.475511,81.5446227 268.71071,83.2814116 C266.945908,85.0182004 265.755385,87.1751478 265.139105,89.7523184 C264.354749,93.0578198 263.542392,97.035567 262.702011,101.685679 C261.861629,106.335791 261.105297,111.167914 260.432991,116.182191 C259.875054,120.343474 259.394293,124.446829 258.990699,128.492338 C257.870158,129.845649 256.754207,131.134686 255.64284,132.359458 C254.466305,133.648044 253.219758,134.894591 251.90316,136.099138 C250.586562,137.303685 249.269983,138.382159 247.953385,139.334592 C246.636787,140.287024 245.334215,141.057363 244.04563,141.64563 C242.757045,142.233897 241.524503,142.528026 240.347969,142.528026 C238.779256,142.528026 237.756807,141.7857 237.280591,140.301026 C236.804375,138.816351 236.56627,136.757447 236.56627,134.124251 C236.56627,131.042852 236.846393,127.779418 237.406648,124.333853 C237.966902,120.888288 238.583173,117.442775 239.255478,113.99721 C239.927783,110.551645 240.544054,107.190168 241.104309,103.91268 C241.664563,100.635191 241.944686,97.6518805 241.944686,94.962659 C241.944686,93.2258701 241.790618,91.8532672 241.482478,90.8448092 C241.174338,89.8363511 240.740148,89.0520066 240.179893,88.4917522 C239.619639,87.9314977 238.975356,87.5673377 238.247025,87.3992614 C237.518694,87.231185 236.73435,87.1471481 235.893968,87.1471481 C235.277688,87.1471481 234.647411,87.1611543 234.003119,87.189167 C233.358826,87.2171797 232.728549,87.2311859 232.112269,87.2311859 C231.383938,87.2311859 230.669625,87.1891674 229.969307,87.1051293 C229.268988,87.0210911 228.582687,86.8390111 227.910382,86.5588839 C227.238076,86.2787566 226.67783,85.8305598 226.229627,85.2142799 C225.781423,84.5979999 225.31922,83.9677231 224.843004,83.3234304 C224.366787,82.6791378 223.764523,82.1048856 223.036192,81.6006565 C222.307861,81.0964275 221.299418,80.8443168 220.010833,80.8443168 C216.145077,80.8443168 212.34941,81.6706797 208.623718,83.3234304 C204.898025,84.9761812 201.354469,87.2031593 197.992942,90.0044317 C194.631415,92.8057041 191.536056,96.0831436 188.706771,99.8368486 C185.877486,103.590554 183.426409,107.582307 181.353467,111.812228 C179.280526,116.042149 177.655812,120.37005 176.479278,124.796061 C175.815091,127.294668 175.338383,129.757544 175.049151,132.184713 C174.951831,132.229918 174.854282,132.27416 174.756504,132.317439 C173.047728,133.073783 171.380996,133.451949 169.756258,133.451949 C168.13152,133.451949 166.604849,133.227851 165.1762,132.779647 C163.747551,132.331444 162.51501,131.603124 161.478539,130.594666 C160.442068,129.586208 159.615705,128.311648 158.999426,126.770948 C158.383146,125.230248 158.07501,123.36743 158.07501,121.182437 C158.07501,120.28603 158.425164,118.185107 159.125482,114.879606 C159.8258,111.574105 160.694182,107.512321 161.730652,102.694132 C162.767123,97.8759436 163.887615,92.469569 165.092162,86.4748461 C166.29671,80.4801232 167.417202,74.3174164 168.453673,67.9865408 C169.490143,61.6556652 170.358525,55.3388908 171.058843,49.0360279 C171.759161,42.733165 172.109315,36.8645874 172.109315,31.430119 C172.109315,29.4692283 171.885216,27.8585209 171.437013,26.5979483 C170.988809,25.3373757 170.344526,24.3289328 169.504144,23.5725892 C168.663763,22.8162457 167.669326,22.2840119 166.520804,21.975872 C165.372283,21.667732 164.097723,21.5136643 162.697087,21.5136643 C160.904272,21.5136643 159.153503,21.667732 157.444727,21.975872 C155.735951,22.2840119 154.20928,22.9142888 152.86467,23.8667214 C151.520059,24.819154 150.413573,26.1637446 149.545178,27.9005334 C148.676784,29.6373223 148.158556,31.9343312 147.99048,34.7916291 C147.822404,37.536876 147.528275,41.3325431 147.108084,46.1787444 C146.687893,51.0249456 146.113641,56.4873448 145.38531,62.5661059 C144.656979,68.6448669 143.746579,75.1017029 142.654083,81.9368076 C141.561587,88.7719122 140.273021,95.5508897 138.788346,102.273943 C137.303672,108.996997 135.594921,115.439827 133.662043,121.602626 C131.729166,127.765425 129.544206,133.185806 127.107099,137.863931 C124.669992,142.542056 121.980811,146.281698 119.039475,149.082971 C116.098139,151.884243 112.834705,153.284858 109.249077,153.284858 C107.176135,153.284858 105.439372,152.528526 104.038736,151.015839 C102.6381,149.503152 101.503602,147.318192 100.635207,144.460895 C99.7668128,141.603597 99.1505421,138.144077 98.7863767,134.082232 C98.4222113,130.020387 98.2401313,125.468388 98.2401313,120.426098 C98.2401313,115.495858 98.4642297,110.089484 98.9124333,104.206812 C99.3606369,98.3241396 99.9348891,92.3715251 100.635207,86.3487895 C101.335525,80.3260539 102.091858,74.4574763 102.904227,68.7428806 C103.716595,63.0282849 104.472928,57.9160395 105.173246,53.405991 C105.873564,48.8959424 106.447816,45.1983184 106.89602,42.3130078 C107.344223,39.4276972 107.568322,37.7889775 107.568322,37.3967993 C107.568322,36.2202649 107.400248,35.1557974 107.064095,34.2033648 C106.727943,33.2509322 106.15369,32.4385754 105.341321,31.76627 C104.528952,31.0939646 103.436472,30.5617309 102.063849,30.1695527 C100.691226,29.7773746 98.9404565,29.5812885 96.8114895,29.5812885 C94.5704716,29.5812885 92.5956042,29.8333992 90.8868281,30.3376282 C89.1780519,30.8418573 87.6793937,31.7102387 86.3908084,32.9427985 C85.1022231,34.1753584 83.9957371,35.8280843 83.0713172,37.9010259 C82.1468973,39.9739674 81.3485467,42.5510994 80.6762413,45.632499 C77.0345872,64.7371766 72.8607539,81.7966696 68.1546163,96.8114895 C66.8100056,101.069424 65.3813781,105.285275 63.868691,109.459171 C62.3560039,113.633067 60.7452965,117.610814 59.0365203,121.392532 C57.3277442,125.17425 55.5489629,128.689794 53.7001231,131.93927 C51.8512833,135.188746 49.9184344,137.989976 47.9015183,140.343045 C45.8846021,142.696114 43.7976855,144.544926 41.6407058,145.889536 C39.4837261,147.234147 37.2567479,147.906442 34.9597046,147.906442 C32.6626612,147.906442 30.6737876,147.178122 28.9930242,145.721461 C27.3122608,144.264799 25.9116456,142.261919 24.7911366,139.712762 C23.6706277,137.163604 22.8442647,134.166287 22.312023,130.720722 C21.7797812,127.275157 21.5136643,123.563527 21.5136643,119.58572 C21.5136643,114.711506 21.9758674,109.431187 22.9002872,103.744604 C23.8247071,98.0580211 24.9872177,92.2734804 26.3878539,86.3908084 C27.7884901,80.5081364 29.3011545,74.7095895 30.9258925,68.9949938 C32.5506305,63.2803982 34.0632949,57.9860728 35.4639311,53.1118588 C36.8645673,48.2376449 38.0270779,43.9377563 38.9514977,40.212064 C39.8759176,36.4863717 40.3381206,33.6711352 40.3381206,31.76627 C40.3381206,30.0855066 40.1560407,28.7549222 39.7918753,27.7744768 C39.4277098,26.7940315 38.8954761,26.0376993 38.195158,25.5054575 C37.4948399,24.9732158 36.6404646,24.623062 35.6320066,24.4549856 C34.6235485,24.2869093 33.5030564,24.2028724 32.2704965,24.2028724 C30.7578094,24.2028724 29.2591512,24.2869093 27.7744768,24.4549856 C26.2898025,24.623062 24.8191565,25.1412896 23.3624949,26.009684 C21.9058332,26.8780785 20.4772057,28.2226691 19.0765696,30.0434961 C17.6759334,31.8643232 16.2753182,34.3994366 14.874682,37.6489126 C12.5216132,43.4755592 10.4206904,49.4701921 8.57185064,55.6329914 C6.72301086,61.7957906 5.16832801,68.014522 3.90775544,74.2893722 C2.64718286,80.5642223 1.68075839,86.8249722 1.00845302,93.0718096 C0.336147644,99.318647 0,105.411323 0,111.350021 C0,121.042423 0.77033835,129.516145 2.31103816,136.77144 C3.85173797,144.026736 5.89663614,150.063387 8.44579401,154.881576 C10.9949519,159.699764 13.9502499,163.327358 17.3117768,165.764465 C20.6733036,168.201571 24.2028539,169.420107 27.9005334,169.420107 C34.3434599,169.420107 40.2120375,168.313621 45.5064423,166.100616 C50.8008472,163.88761 55.5069142,160.17598 59.6247846,154.965613 C63.742655,149.755247 67.3282298,142.850214 70.3816167,134.250308 C73.4350036,125.650402 75.9701171,114.963708 77.9870332,102.189906 C77.8189569,104.038745 77.5948585,106.139668 77.3147312,108.492737 C77.034604,110.845806 76.8945425,113.366913 76.8945425,116.056135 C76.8945425,123.395468 77.4267762,130.314507 78.4912597,136.813459 C79.5557433,143.312411 81.2504876,148.970896 83.5755437,153.789085 C85.9005998,158.607273 88.9259286,162.416947 92.6516208,165.218219 C96.3773131,168.019492 100.9013,169.420107 106.223718,169.420107 C110.425626,169.420107 114.501416,168.621756 118.451211,167.025031 C122.401005,165.428306 126.182666,163.159309 129.796307,160.217973 C133.409948,157.276637 136.827449,153.719074 140.048913,149.545178 C143.270376,145.371283 146.281698,140.679222 149.082971,135.468855 C149.419124,138.158077 150.007382,140.483098 150.847764,142.443989 C151.688145,144.404879 152.738607,146.00158 153.999179,147.23414 C155.259752,148.4667 156.702386,149.3771 158.327124,149.965367 C159.951861,150.553634 161.688624,150.847764 163.537464,150.847764 C167.40322,150.847764 171.535035,149.475161 175.933032,146.729914 C175.983911,146.698155 176.034772,146.666262 176.085617,146.634233 C176.208568,146.993587 176.339789,147.347625 176.479278,147.696348 C177.655812,150.637684 179.224501,153.130779 181.185392,155.175708 C183.146283,157.220637 185.401273,158.789326 187.950431,159.881822 C190.499589,160.974318 193.118739,161.520558 195.807961,161.520558 C198.329106,161.520558 200.850213,161.100374 203.371358,160.259992 C205.892503,159.41961 208.315568,158.341136 210.640624,157.024538 C212.96568,155.70794 215.108621,154.237294 217.069512,152.612556 C219.030402,150.987818 220.683128,149.391117 222.027739,147.822405 C223.820553,152.360466 225.949488,155.819985 228.414608,158.201067 C230.879728,160.582148 233.961081,161.772671 237.658761,161.772671 C240.74016,161.772671 243.821514,161.016339 246.902913,159.503652 C249.984313,157.990965 252.86958,156.142153 255.558802,153.95716 C256.615165,153.098865 257.630459,152.223286 258.604689,151.330418 C258.884775,153.020101 259.340137,154.553967 259.970784,155.932048 C260.727127,157.584798 261.805601,158.901377 263.206237,159.881822 C264.606873,160.862267 266.455685,161.352483 268.752729,161.352483 C270.601569,161.352483 272.226282,160.932298 273.626918,160.091916 C275.027555,159.251535 276.288108,157.682846 277.408617,155.385802 L299.426508,111.686172 L300.771112,111.686172 C300.098807,116.168207 299.538561,120.356047 299.090357,124.249815 C298.642153,128.143584 298.418055,131.771177 298.418055,135.132704 C298.418055,143.704598 299.468516,150.217458 301.569471,154.671481 C303.670425,159.125504 306.261563,161.352483 309.342963,161.352483 C312.424362,161.352483 315.365654,160.918292 318.166927,160.049897 C320.968199,159.181503 323.65738,158.061011 326.234551,156.688387 C328.811721,155.315764 331.29081,153.761081 333.671892,152.024292 C333.873773,151.877038 334.075352,151.729783 334.276628,151.582529 C334.513815,151.975261 334.760437,152.360622 335.016496,152.738613 C336.781297,155.343796 338.994269,157.430713 341.655478,158.999426 C344.316687,160.568138 347.468071,161.352483 351.109725,161.352483 C353.686896,161.352483 356.250021,160.946304 358.799179,160.133935 C361.348337,159.321566 363.869445,158.243092 366.362577,156.898482 C368.855709,155.553871 371.264767,153.971176 373.589824,152.150349 C375.91488,150.329522 378.113845,148.410679 380.186787,146.393763 C381.531398,149.643239 383.114093,152.248383 384.93492,154.209274 C386.755747,156.170164 388.576547,157.668823 390.397374,158.705293 C392.218201,159.741764 393.898939,160.428066 395.439639,160.764218 C396.980339,161.100371 398.142849,161.268445 398.927206,161.268445 C400.327842,161.268445 401.854512,161.03034 403.507263,160.554124 C405.160014,160.077908 406.854758,159.461637 408.591547,158.705293 C410.328336,157.94895 412.093111,157.080568 413.885925,156.100123 C415.67874,155.119678 417.38749,154.125241 419.012228,153.116783 C421.998434,151.255814 425.018036,149.194281 428.071088,146.932146 C428.878968,148.295541 429.781108,149.586738 430.777513,150.805745 C433.410709,154.027208 436.702155,156.590334 440.651949,158.495199 C444.601743,160.400064 449.209767,161.352483 454.476159,161.352483 C457.837686,161.352483 461.157144,160.974316 464.434633,160.217973 C467.712121,159.461629 470.877512,158.453186 473.930899,157.192614 C476.984286,155.932041 479.897565,154.489408 482.670825,152.86467 C485.444084,151.239932 488.035223,149.587206 490.444317,147.906442 C491.058702,147.472029 491.669305,147.030398 492.276127,146.58155 C492.33758,147.845017 492.441297,149.085002 492.587279,150.301518 C492.839394,152.402473 493.343615,154.279297 494.099959,155.932048 C494.856303,157.584798 495.934776,158.901377 497.335412,159.881822 C498.736049,160.862267 500.584861,161.352483 502.881904,161.352483 C503.890362,161.352483 504.814768,161.170403 505.65515,160.806237 C506.495531,160.442072 507.279876,159.811795 508.008207,158.915388 C508.736538,158.018981 509.450851,156.85647 510.151169,155.427821 C510.851488,153.999172 511.593814,152.192379 512.37817,150.007386 L527.420927,108.072548 L528.765531,108.072548 C529.213735,111.602151 529.801993,115.089683 530.530324,118.535248 C531.258655,121.980813 532.379147,125.090179 533.891834,127.863439 C535.404521,130.636698 537.449419,132.877683 540.02659,134.586459 C542.603761,136.295235 545.993249,137.14961 550.195158,137.14961 C552.548227,137.14961 554.859242,136.799456 557.128272,136.099138 C559.397303,135.39882 561.582263,134.530439 563.683217,133.493968 C565.784171,132.457497 567.759039,131.351011 569.607879,130.174477 C571.456718,128.997942 573.109444,127.933475 574.566106,126.981042 L575.826672,107.316208 C573.305527,109.38915 570.728395,111.237962 568.095199,112.8627 C565.854181,114.263336 563.389098,115.52389 560.699877,116.644399 C558.010655,117.764908 555.405511,118.325154 552.884366,118.325154 C551.987959,118.325154 551.133584,118.15708 550.321215,117.820927 C549.508846,117.484775 548.780526,116.910522 548.136233,116.098153 C547.49194,115.285784 546.973713,114.207311 546.581535,112.8627 C546.189357,111.518089 545.99327,109.837351 545.99327,107.820435 C545.99327,106.643901 546.133332,105.173255 546.413459,103.408453 C546.693586,101.643651 547.001722,99.8228517 547.337874,97.9459992 C547.674027,96.0691467 547.982162,94.2763592 548.26229,92.5675831 C548.542417,90.8588069 548.682478,89.5282225 548.682478,88.5757899 C548.682478,87.3432301 548.45838,86.2367441 548.010176,85.2562987 C547.561973,84.2758534 546.959708,83.4494904 546.203365,82.7771851 C545.447021,82.1048797 544.564634,81.5866521 543.556176,81.2224867 C542.547718,80.8583213 541.511262,80.6762413 540.446779,80.6762413 C537.365379,80.6762413 534.648186,81.5026042 532.295117,83.1553549 C529.942048,84.8081057 527.841125,86.8389977 525.992286,89.2480919 C524.143446,91.6571862 522.518732,94.2483243 521.118096,97.0215839 C519.71746,99.7948436 518.456906,102.301945 517.336397,104.542963 L516.411982,104.542963 C516.299931,101.685665 516.243906,98.7863914 516.243906,95.8450554 L516.243906,88.3236767 C516.243906,86.5868878 516.201888,85.2142849 516.11785,84.2058268 C516.033812,83.1973688 515.795707,82.4270304 515.403529,81.8947887 C515.011351,81.3625469 514.409086,81.0263993 513.596717,80.8863357 C512.784348,80.746272 511.64985,80.6762413 510.193188,80.6762413 C508.904603,80.6762413 507.826129,80.746272 506.957735,80.8863357 C506.08934,81.0263993 505.361021,81.3065223 504.772753,81.7267132 C504.184486,82.146904 503.666259,82.7211563 503.218055,83.4494871 C502.769851,84.1778179 502.321655,85.1582485 501.873451,86.3908084 C501.14512,88.2396481 500.4168,90.5926817 499.688469,93.4499795 C498.960139,96.3072773 498.231819,99.4446553 497.503488,102.862208 C496.775157,106.27976 496.088856,109.879341 495.444563,113.661059 C494.814848,117.357211 494.26542,120.986411 493.796262,124.548763 Z M196.228149,134.124251 C196.228149,135.524887 196.326192,136.883484 196.522281,138.200082 C196.718371,139.51668 197.068524,140.693197 197.572753,141.729668 C198.076982,142.766138 198.749278,143.606508 199.589659,144.2508 C200.430041,144.895093 201.494509,145.217234 202.783094,145.217234 C204.856036,145.217234 206.73286,144.320841 208.413623,142.528026 C210.094387,140.735212 211.551027,138.578265 212.783586,136.057119 C214.016146,133.535974 215.010583,130.93083 215.766927,128.241609 C216.52327,125.552387 217.013485,123.311403 217.237587,121.518588 L222.36389,96.8114895 C220.066847,96.8114895 217.825862,97.3857418 215.64087,98.5342634 C213.455877,99.6827851 211.396973,101.237468 209.464095,103.198359 C207.531217,105.159249 205.752436,107.400234 204.127698,109.921379 C202.50296,112.442524 201.102345,115.089687 199.92581,117.862946 C198.749276,120.636206 197.838876,123.42343 197.194584,126.224703 C196.550291,129.025975 196.228149,131.659131 196.228149,134.124251 Z M372.95954,97.8199426 C369.261861,99.6127569 365.970415,101.979797 363.085105,104.921133 C360.199794,107.862469 357.790736,111.041865 355.857858,114.459417 C353.92498,117.87697 352.454334,121.322483 351.445876,124.796061 C350.437418,128.269638 349.933197,131.407016 349.933197,134.208289 C349.933197,135.328798 350.059252,136.44929 350.311366,137.569799 C350.563481,138.690308 351.025684,139.698751 351.697989,140.595158 C352.370295,141.491565 353.322713,142.219885 354.555273,142.78014 C355.787833,143.340394 357.384534,143.620517 359.345425,143.620517 C360.353883,143.620517 361.34832,143.368406 362.328765,142.864177 C363.30921,142.359948 364.247622,141.701659 365.14403,140.88929 C366.040437,140.076921 366.894812,139.152515 367.707181,138.116044 C368.51955,137.079574 369.261876,136.0011 369.934181,134.880591 C371.502894,132.30342 372.931521,129.390141 374.220107,126.140665 C374.05203,125.356308 373.911969,124.109761 373.799918,122.400985 C373.687867,120.692209 373.60383,118.787372 373.547805,116.686418 C373.491779,114.585463 373.435755,112.41451 373.379729,110.173492 C373.323704,107.932474 373.281685,105.887576 373.253673,104.038736 C373.22566,102.189896 373.183641,100.677232 373.127616,99.5006976 C373.07159,98.3241632 373.015566,97.7639171 372.95954,97.8199426 Z M412.457284,36.8925728 C412.793436,32.9707915 412.96151,29.8614258 412.96151,27.5643824 C412.96151,24.5390083 412.695393,22.4380855 412.163151,21.2615511 C411.63091,20.0850167 410.860571,19.4967583 409.852113,19.4967583 C408.059299,19.4967583 406.434585,20.6312566 404.977924,22.9002872 C403.521262,25.1693179 402.232696,28.0685913 401.112187,31.5981945 C399.991678,35.1277977 399.011248,39.0215079 398.170866,43.2794419 C397.330484,47.537376 396.630177,51.6551846 396.069922,55.6329914 C395.509668,59.6107982 395.061471,63.196373 394.725318,66.3898236 C394.389165,69.5832741 394.165067,71.8522707 394.053016,73.1968814 C393.828914,75.9421283 393.646834,78.589291 393.506771,81.1384489 C393.366707,83.6876068 393.268664,86.012628 393.212638,88.1135823 C393.156613,90.2145366 393.128601,92.0493425 393.128601,93.618055 L393.128601,98.0720558 C396.322051,90.7887476 399.263343,83.533561 401.952565,76.3062782 C403.073074,73.2248786 404.207572,69.9894575 405.356094,66.5999179 C406.504615,63.2103783 407.555077,59.8068835 408.507509,56.3893311 C409.459942,52.9717788 410.286305,49.6103024 410.986623,46.304801 C411.686941,42.9992996 412.177156,39.8619216 412.457284,36.8925728 Z M443.299138,121.854739 C445.316054,121.854739 447.51502,121.336512 449.896102,120.300041 C452.277183,119.26357 454.490155,117.932986 456.535084,116.308248 C458.580013,114.68351 460.30277,112.918735 461.703406,111.01387 C463.104042,109.109004 463.80435,107.260192 463.80435,105.467378 C463.80435,102.946233 463.342147,100.873322 462.417727,99.2485843 C461.493307,97.6238463 460.358809,96.8114895 459.014198,96.8114895 C456.605104,96.8114895 454.546199,97.2596864 452.837423,98.1560936 C451.128647,99.0525007 449.700019,100.215011 448.551498,101.64366 C447.402976,103.072309 446.47857,104.697023 445.778252,106.51785 C445.077934,108.338677 444.5457,110.173483 444.181535,112.022323 C443.817369,113.871162 443.579265,115.66395 443.467214,117.400739 C443.355163,119.137527 443.299138,120.62218 443.299138,121.854739 Z M809.535659,134.124251 C809.535659,135.524887 809.633702,136.883484 809.829791,138.200082 C810.02588,139.51668 810.376034,140.693197 810.880263,141.729668 C811.384492,142.766138 812.056787,143.606508 812.897169,144.2508 C813.73755,144.895093 814.802018,145.217234 816.090603,145.217234 C818.163545,145.217234 820.040369,144.320841 821.721133,142.528026 C823.401896,140.735212 824.858536,138.578265 826.091096,136.057119 C827.323655,133.535974 828.318092,130.93083 829.074436,128.241609 C829.830779,125.552387 830.320995,123.311403 830.545096,121.518588 L835.671399,96.8114895 C833.374356,96.8114895 831.133372,97.3857418 828.948379,98.5342634 C826.763387,99.6827851 824.704482,101.237468 822.771604,103.198359 C820.838726,105.159249 819.059945,107.400234 817.435207,109.921379 C815.810469,112.442524 814.409854,115.089687 813.23332,117.862946 C812.056785,120.636206 811.146385,123.42343 810.502093,126.224703 C809.8578,129.025975 809.535659,131.659131 809.535659,134.124251 Z M865.840952,198.413131 C865.840952,198.861334 865.938995,199.589654 866.135084,200.598112 C866.331173,201.60657 866.653315,202.615013 867.101518,203.623471 C867.549722,204.63193 868.13798,205.528323 868.866311,206.31268 C869.594642,207.097036 870.491036,207.489208 871.555519,207.489208 C872.507952,207.489208 873.292296,206.97098 873.908576,205.93451 C874.524856,204.898039 875.029078,203.51143 875.421256,201.774641 C875.813434,200.037852 876.093557,198.076991 876.261633,195.891998 C876.429709,193.707006 876.569771,191.466022 876.681822,189.168978 C876.793873,186.871935 876.863904,184.630951 876.891916,182.445958 C876.919929,180.260966 876.98996,178.300104 877.102011,176.563316 C877.270087,173.537941 877.396142,170.974816 877.480181,168.873861 L877.690275,163.621502 C877.7463,162.052789 877.802325,160.736211 877.85835,159.671728 C876.793867,161.520567 875.757412,163.663509 874.748954,166.100616 C873.740496,168.537722 872.788077,171.072836 871.89167,173.706032 C870.995263,176.339228 870.182906,178.972385 869.454575,181.605581 C868.726244,184.238777 868.095968,186.689853 867.563726,188.958884 C867.031484,191.227915 866.6113,193.188776 866.30316,194.841526 C865.99502,196.494277 865.840952,197.6848 865.840952,198.413131 Z M895.086089,137.90595 C898.447616,136.225187 901.34689,134.348362 903.783997,132.275421 C906.221104,130.202479 908.322026,127.989507 910.086828,125.636438 C911.85163,123.283369 913.294263,120.846299 914.414772,118.325154 C915.535281,115.804009 916.431675,113.226877 917.10398,110.593681 C917.384108,109.361121 917.566188,107.918487 917.650226,106.265737 C917.734264,104.612986 917.56619,103.058303 917.145999,101.601641 C916.725808,100.14498 915.997488,98.8984322 914.961018,97.8619614 C913.924547,96.8254906 912.481913,96.307263 910.633073,96.307263 C908.560132,96.307263 906.739332,96.8815153 905.17062,98.0300369 C903.601907,99.1785586 902.24331,100.733241 901.094789,102.694132 C899.946267,104.655023 898.993849,106.980044 898.237505,109.669265 C897.481162,112.358487 896.864891,115.243754 896.388675,118.325154 C895.912458,121.406554 895.576311,124.613962 895.380222,127.947476 C895.184133,131.280991 895.086089,134.600449 895.086089,137.90595 Z M951.223307,139.838818 C951.895613,139.838818 952.637939,140.259003 953.450308,141.099384 C954.262677,141.939766 955.201089,142.864172 956.265572,143.87263 C957.330056,144.881088 958.562597,145.805494 959.963233,146.645876 C961.36387,147.486258 962.960571,147.906442 964.753385,147.906442 C966.938378,147.906442 968.745171,147.542282 970.17382,146.813952 C971.602469,146.085621 972.736967,145.119196 973.577349,143.914649 C974.417731,142.710102 975.005989,141.309487 975.342142,139.712762 C975.678295,138.116036 975.846368,136.449304 975.846368,134.712515 C975.846368,133.199828 975.748325,131.659152 975.552236,130.090439 C975.356147,128.521727 975.104037,127.023068 974.795897,125.594419 C974.487757,124.16577 974.151609,122.82118 973.787444,121.560607 C973.423278,120.300035 973.101137,119.221561 972.821009,118.325154 L951.223307,139.838818 Z" id="Wander-Maps"></path>
        </g>
    </g>
</svg>